<?xml version="1.0" standalone="no"?>
<!DOCTYPE svg PUBLIC "-//W3C//DTD SVG 20010904//EN"
 "http://www.w3.org/TR/2001/REC-SVG-20010904/DTD/svg10.dtd">
<svg version="1.0" xmlns="http://www.w3.org/2000/svg"
 width="1089.000000pt" height="1280.000000pt" viewBox="0 0 1089.000000 1280.000000"
 preserveAspectRatio="xMidYMid meet">
<metadata>
Created by potrace 1.16, written by Peter Selinger 2001-2019
</metadata>
<g transform="translate(0.000000,1280.000000) scale(0.100000,-0.100000)"
fill="#000000" stroke="none">
<path d="M195 12787 c-54 -62 -59 -76 -45 -115 7 -20 14 -55 15 -78 1 -22 5
-46 9 -53 11 -17 28 -2 21 20 -15 47 26 79 55 44 19 -22 57 -18 74 8 7 12 21
45 30 72 20 63 68 100 116 90 32 -7 60 -46 60 -84 0 -11 12 -29 27 -41 22 -17
28 -31 30 -68 6 -86 42 -80 43 8 1 43 3 46 42 66 23 12 43 25 45 31 2 5 -8 22
-22 37 -14 15 -33 39 -42 52 l-15 24 -217 0 c-156 -1 -219 -4 -226 -13z"/>
<path d="M745 12763 c4 -21 34 -81 68 -133 34 -53 67 -105 73 -115 9 -15 21
-19 45 -18 19 1 41 0 49 -4 8 -3 29 -5 46 -4 18 1 38 -5 48 -14 9 -9 23 -15
30 -12 7 3 19 0 25 -6 9 -9 6 -15 -10 -28 -14 -10 -23 -31 -26 -62 -3 -26 -10
-47 -15 -47 -19 0 14 -40 37 -46 28 -7 68 -51 59 -65 -3 -6 -21 -7 -40 -3 -30
5 -34 4 -34 -15 0 -11 -6 -21 -14 -21 -19 0 -76 48 -76 64 0 7 -25 34 -55 61
-43 37 -55 53 -55 76 0 39 -23 93 -63 146 -37 49 -54 53 -87 18 -21 -23 -27
-39 -29 -87 -1 -11 -6 -15 -15 -12 -8 3 -19 -3 -25 -15 -10 -18 -5 -27 37 -69
61 -62 80 -131 65 -239 -9 -59 -8 -72 8 -103 11 -19 19 -45 19 -58 0 -25 26
-82 38 -82 13 0 42 -57 42 -83 0 -37 -63 -77 -122 -77 -49 0 -72 -14 -84 -52
-5 -16 0 -27 18 -42 31 -26 48 -57 48 -90 0 -27 32 -56 62 -56 9 0 42 15 73
34 33 20 64 32 75 29 11 -3 38 -25 60 -49 36 -39 39 -46 30 -70 -6 -15 -10
-34 -8 -43 5 -35 -13 -68 -56 -101 -25 -19 -48 -43 -51 -52 -3 -9 -17 -33 -31
-54 -16 -24 -24 -46 -21 -61 3 -18 -4 -31 -29 -51 -25 -20 -34 -35 -34 -58 0
-39 -17 -60 -54 -67 -75 -13 -115 34 -90 105 10 28 13 55 8 78 -4 19 -8 47
-10 62 -1 15 -16 48 -33 74 -17 26 -31 53 -31 60 0 7 -18 27 -40 44 -31 24
-40 39 -40 61 0 71 -44 108 -113 95 -17 -3 -51 -9 -75 -12 -23 -4 -45 -11 -48
-15 -9 -15 -120 -11 -134 6 -13 16 -12 20 32 69 17 20 39 36 49 36 9 0 22 7
30 16 11 13 10 21 -4 47 -14 26 -17 50 -13 127 5 84 7 95 23 93 42 -6 55 -10
61 -20 8 -12 106 -63 122 -63 15 0 -22 49 -37 50 -6 0 -14 -6 -16 -12 -4 -10
-6 -10 -6 0 -1 8 -15 27 -32 43 -25 23 -35 27 -45 18 -11 -9 -18 -8 -28 0 -8
7 -34 12 -58 12 -61 1 -177 56 -178 86 0 14 -11 27 -30 37 l-30 14 0 -323 0
-323 30 28 c43 40 79 46 129 21 31 -16 46 -19 66 -11 46 17 70 11 113 -28 36
-34 42 -45 42 -80 0 -29 -6 -48 -21 -63 -19 -19 -19 -22 -5 -38 18 -20 8 -36
-29 -43 -11 -2 -20 -11 -20 -20 0 -24 -31 -58 -52 -58 -10 0 -37 7 -60 16 -39
15 -45 15 -61 1 -9 -8 -43 -18 -74 -22 l-58 -7 0 -79 c0 -64 4 -82 19 -96 28
-27 61 -85 61 -109 0 -11 6 -29 14 -39 13 -18 16 -18 74 -1 56 15 62 15 95 0
34 -16 51 -44 41 -67 -9 -22 -54 -48 -92 -54 -20 -3 -48 -16 -62 -28 -14 -13
-35 -26 -48 -30 -12 -3 -27 -15 -32 -26 -12 -21 -40 -25 -58 -7 -9 9 -12 4
-12 -25 0 -32 3 -37 24 -37 13 0 26 7 29 15 5 12 14 11 63 -5 66 -23 78 -32
111 -80 13 -19 35 -50 48 -69 30 -41 31 -61 5 -91 -17 -19 -29 -23 -75 -21
-47 1 -58 -2 -87 -28 -30 -26 -31 -31 -20 -56 17 -38 92 -125 108 -125 7 0 22
13 33 28 25 35 87 79 129 91 41 12 61 -8 43 -42 -18 -33 -93 -113 -118 -126
-29 -15 -29 -26 2 -63 32 -37 32 -68 0 -118 -20 -32 -31 -40 -55 -40 -25 0
-37 -9 -66 -50 -39 -55 -60 -65 -110 -55 -40 7 -43 -3 -10 -36 14 -13 29 -28
35 -34 35 -35 100 -114 111 -134 7 -14 10 -39 6 -63 -6 -37 -4 -42 49 -97 59
-62 65 -83 35 -119 -32 -38 -55 -25 -55 32 0 46 -1 49 -45 73 -25 14 -54 33
-65 43 -22 19 -108 70 -118 70 -4 0 -7 -40 -7 -88 0 -73 3 -92 18 -105 23 -21
32 -13 32 28 0 27 5 35 30 45 48 20 60 2 60 -89 0 -78 -17 -152 -44 -193 -11
-16 -15 -46 -15 -90 1 -58 5 -69 31 -97 16 -17 37 -31 47 -31 10 0 39 -11 65
-25 30 -16 64 -25 94 -25 53 -1 86 -19 76 -43 -5 -14 -99 -57 -124 -57 -6 0
-10 -4 -10 -9 0 -5 -12 -11 -27 -13 -14 -2 -35 -15 -47 -31 l-21 -28 33 -27
c46 -38 43 -73 -8 -125 -23 -22 -40 -47 -38 -56 4 -29 -13 -63 -28 -57 -8 3
-34 3 -58 0 -37 -5 -44 -11 -54 -38 -9 -24 -12 -1048 -12 -4134 l0 -4102 931
0 931 0 -7 77 c-4 42 -14 87 -22 100 -9 13 -18 53 -21 91 -3 47 -11 76 -27 97
-25 34 -35 67 -41 140 -3 28 -9 59 -14 70 -31 64 -38 106 -33 184 4 52 2 81
-4 81 -15 0 -30 47 -35 107 -2 18 -8 37 -15 44 -7 7 -9 30 -6 60 3 27 -1 82
-7 122 -18 100 -19 235 -4 273 14 34 88 114 105 114 6 0 50 19 97 43 84 41 88
42 181 41 82 -1 112 -7 206 -38 63 -22 121 -48 136 -62 14 -13 30 -24 37 -24
7 0 12 -9 12 -20 0 -10 8 -24 18 -29 15 -9 15 -12 2 -21 -12 -8 -10 -10 9 -10
22 0 23 -1 8 -17 -13 -15 -15 -43 -12 -169 2 -105 7 -157 16 -172 12 -19 11
-26 -4 -52 -14 -23 -16 -34 -7 -50 6 -12 9 -28 6 -38 -3 -9 -8 -53 -11 -97 -4
-44 -10 -82 -16 -83 -11 -4 -12 -42 -1 -42 4 0 14 -15 22 -33 7 -17 15 -35 18
-39 2 -5 -6 -8 -17 -8 -17 0 -21 -6 -21 -36 0 -19 5 -45 11 -56 23 -44 37
-130 30 -185 -7 -49 -5 -58 16 -83 12 -15 23 -33 23 -39 0 -6 9 -11 20 -11 21
0 27 -15 10 -25 -16 -10 -11 -22 13 -30 18 -6 19 -8 5 -12 -9 -2 -21 -18 -27
-35 -14 -41 -14 -48 4 -48 11 0 15 -11 15 -40 l0 -40 2695 0 2694 0 -34 57
c-27 46 -35 72 -40 128 -3 39 -9 97 -13 131 -9 68 -1 110 24 128 14 11 6 20
-66 80 -44 37 -84 75 -86 84 -3 9 -9 24 -14 33 -9 18 -2 67 11 75 5 3 9 34 9
69 0 47 4 66 15 73 38 21 -25 72 -88 72 -32 0 -35 -3 -41 -38 -9 -58 -7 -89 7
-104 21 -21 29 -57 32 -153 2 -49 9 -119 15 -155 6 -36 11 -71 11 -77 -1 -7
-1 -21 0 -30 3 -96 -14 -136 -68 -158 -56 -23 -144 -30 -175 -14 -29 15 -88
85 -88 103 0 7 -5 17 -12 24 -23 23 -55 129 -51 171 2 22 -1 50 -7 61 -8 14
-7 25 2 39 9 15 9 23 0 34 -8 9 -10 29 -6 55 6 42 9 38 -56 95 -30 26 -45 21
-85 -26 -43 -50 -42 -77 7 -147 44 -62 50 -137 17 -209 -20 -43 -29 -52 -57
-57 -47 -9 -88 12 -124 65 -34 50 -45 99 -53 250 -2 46 -10 93 -18 105 -16 25
-22 113 -9 129 21 27 27 117 18 247 -4 57 22 109 63 126 58 24 146 30 175 10
32 -20 114 -48 124 -42 4 2 7 33 6 68 -1 75 16 121 62 166 29 28 40 32 86 32
52 0 147 -35 162 -59 9 -15 106 -15 106 0 0 11 53 84 76 104 6 6 22 26 35 45
48 72 104 103 204 115 40 5 105 33 105 45 0 5 -13 16 -30 25 -39 20 -38 35 5
63 48 31 85 37 126 19 31 -13 37 -21 48 -70 8 -30 11 -62 8 -71 -9 -24 84 -21
184 5 49 13 94 18 113 15 17 -4 46 -9 65 -12 19 -2 46 -14 62 -24 15 -11 32
-20 37 -20 5 0 12 -7 16 -15 3 -8 13 -15 21 -15 16 0 87 -48 93 -62 2 -5 10
-8 18 -8 22 0 94 -39 94 -50 0 -14 28 -12 32 2 3 8 11 6 29 -4 13 -9 50 -23
82 -32 32 -9 70 -24 85 -34 15 -9 41 -25 58 -36 31 -19 94 -103 94 -125 0 -6
6 -22 14 -34 9 -13 13 -40 12 -67 -5 -61 -4 -60 -22 -60 -9 0 -18 -9 -21 -19
-4 -15 -17 -21 -51 -25 -78 -8 -272 -2 -280 10 -14 21 -78 41 -131 42 -32 1
-57 6 -62 14 -4 7 -11 9 -16 5 -4 -5 -3 -11 2 -15 20 -14 34 -58 32 -101 -2
-41 1 -47 54 -95 49 -45 57 -56 57 -90 1 -31 -5 -47 -31 -76 -17 -20 -37 -45
-43 -55 -8 -14 -21 -19 -49 -18 -43 1 -64 -17 -65 -54 0 -13 -4 -23 -10 -23
-5 0 -10 -15 -10 -34 0 -28 -4 -35 -22 -38 -25 -3 -38 -38 -15 -38 21 0 39
-54 24 -69 -9 -9 -8 -16 1 -31 6 -11 12 -27 12 -36 0 -14 -2 -15 -17 -3 -13
11 -17 11 -20 2 -5 -15 -43 -18 -43 -3 0 19 -28 10 -33 -10 -6 -23 -39 -39
-45 -22 -2 7 -10 12 -17 12 -39 0 -63 23 -69 64 -9 57 0 77 29 70 27 -7 39 8
30 36 -4 12 -15 20 -30 20 -12 0 -25 7 -29 15 -3 8 -14 15 -24 15 -10 0 -27 9
-37 20 -22 25 -38 21 -45 -10 -7 -30 -32 -46 -56 -35 -27 12 -98 12 -106 0 -5
-6 -11 -5 -17 4 -6 10 -13 11 -27 2 -14 -8 -15 -11 -4 -11 9 0 5 -6 -10 -14
-20 -12 -26 -24 -30 -66 -6 -53 10 -93 44 -112 9 -5 16 -16 16 -24 0 -8 9 -31
20 -51 11 -21 20 -45 20 -53 0 -9 8 -25 18 -36 32 -35 46 -96 32 -140 -7 -22
-17 -45 -23 -51 -7 -10 36 -13 212 -13 121 0 221 2 221 5 0 2 -17 13 -37 23
-84 42 -102 56 -108 89 -3 17 -3 42 0 55 5 21 11 23 61 22 41 -1 58 -6 68 -20
14 -18 15 -18 33 4 l18 22 32 -20 c27 -16 33 -26 33 -53 0 -18 4 -37 10 -43
11 -11 -33 -64 -55 -64 -8 0 -17 -4 -20 -10 -4 -7 360 -10 1084 -10 l1091 0 0
1365 0 1365 -26 -6 c-28 -7 -74 12 -74 31 0 6 22 44 50 84 l50 72 0 718 0 719
-23 6 c-32 8 -59 70 -55 127 2 35 7 44 21 44 11 0 27 11 38 24 18 22 19 44 19
372 0 245 -3 356 -12 374 -9 19 -9 28 0 37 19 19 16 164 -3 172 -17 6 -20 33
-4 38 15 5 -10 58 -28 58 -7 0 -13 7 -13 15 0 19 19 19 26 0 4 -8 12 -15 20
-15 11 0 14 17 14 74 l0 74 -52 4 c-29 2 -69 -2 -88 -9 -59 -20 -67 -17 -94
39 -14 29 -23 55 -20 57 3 3 8 0 12 -6 4 -7 20 -17 36 -23 26 -9 32 -8 55 14
14 13 37 24 51 25 26 1 79 7 93 9 4 1 7 254 7 563 0 485 -2 562 -15 575 -8 9
-15 26 -15 38 0 13 -3 38 -6 55 -5 24 -3 31 9 31 8 0 18 7 21 16 3 9 6 123 6
254 l0 239 -30 35 c-24 27 -29 40 -24 60 5 19 1 30 -15 44 -23 19 -43 91 -22
77 10 -6 11 -3 2 13 -12 23 -30 37 -37 29 -3 -3 -7 -18 -8 -33 -3 -23 -9 -29
-27 -30 -40 -2 -42 -3 -29 -19 6 -8 15 -30 20 -49 9 -42 -2 -49 -53 -33 -31
10 -37 17 -37 39 0 15 5 30 10 33 18 11 11 21 -22 33 -61 23 -65 28 -35 52 15
12 27 28 27 36 0 27 44 38 78 20 17 -9 48 -16 69 -16 33 -1 41 -5 63 -40 24
-39 40 -51 40 -29 0 6 7 9 15 5 13 -5 15 14 15 128 l0 134 -27 7 c-53 13 -74
45 -54 83 5 9 12 25 15 35 3 9 13 17 21 17 42 0 45 17 45 271 0 210 -2 240
-14 224 -12 -17 -16 -18 -32 -5 -16 14 -17 13 -12 -7 6 -24 -27 -73 -49 -73
-7 0 -17 19 -23 43 -6 23 -18 47 -26 54 -9 6 -11 14 -5 17 5 3 23 -5 39 -19
38 -32 42 -31 42 5 0 17 8 38 18 48 26 26 36 96 17 112 -13 11 -16 7 -21 -20
-7 -35 -24 -23 -24 17 0 15 -10 28 -30 38 l-30 16 0 -51 c0 -27 -4 -50 -10
-50 -5 0 -10 -7 -10 -15 0 -37 -66 7 -94 63 -16 32 -46 44 -46 19 0 -8 -9 -22
-19 -31 -11 -10 -21 -30 -23 -45 -2 -21 -7 -25 -28 -23 -14 2 -37 3 -52 3 -24
0 -28 4 -28 28 0 16 -3 43 -6 60 -5 24 -3 31 10 31 13 0 56 65 56 85 0 9 -61
5 -81 -6 -12 -6 -55 -10 -97 -10 l-77 0 -3 -52 c-1 -29 -6 -86 -10 -127 l-7
-75 -53 -6 c-62 -8 -96 -33 -88 -64 7 -27 -16 -61 -34 -50 -9 5 -10 25 -6 69
4 33 7 68 7 76 2 19 -19 118 -26 131 -8 13 -62 -17 -75 -41 -13 -24 -38 -26
-68 -4 -13 9 -29 13 -37 10 -17 -6 -45 19 -45 40 0 11 4 12 19 3 10 -7 26 -9
37 -4 12 5 15 9 7 12 -10 3 -9 12 3 34 13 27 18 29 50 23 32 -6 36 -4 32 12
-2 11 -13 20 -25 22 -13 2 -25 14 -32 33 -7 20 -17 29 -33 30 -13 0 -18 3 -11
5 8 4 10 16 6 34 -6 31 -8 30 74 60 30 11 33 16 33 54 0 22 7 50 15 60 8 11
15 32 15 48 0 33 24 38 42 8 8 -12 24 -20 39 -20 22 0 26 4 22 25 -4 19 0 25
20 30 43 11 59 61 53 163 -15 253 -20 282 -46 282 -18 0 -18 1 3 23 30 31 53
39 67 21 17 -20 53 -17 83 6 28 23 37 25 37 10 0 -17 53 -59 75 -60 11 -1 34
-9 50 -19 24 -14 30 -24 30 -52 0 -31 -3 -34 -30 -34 -21 0 -33 -7 -41 -23
l-11 -23 -17 25 c-9 14 -16 30 -16 36 0 6 -16 18 -37 28 -27 13 -37 14 -40 5
-6 -18 -43 -16 -43 1 0 20 -37 62 -46 53 -4 -4 -2 -13 4 -19 7 -7 12 -22 12
-35 0 -13 5 -23 11 -23 6 0 18 -8 27 -17 19 -19 22 -97 5 -114 -12 -12 2 -90
18 -100 15 -9 58 3 97 26 29 18 32 24 27 53 -5 25 -2 32 10 32 8 0 15 -6 15
-14 0 -19 28 -28 50 -16 11 6 26 26 35 44 17 36 45 49 83 40 12 -4 32 -4 45 0
20 5 23 10 19 37 -4 24 -1 30 9 25 8 -3 22 -9 32 -12 26 -9 21 -43 -8 -56 -15
-7 -24 -17 -20 -25 19 -48 20 -47 -15 -40 l-32 7 4 -55 c5 -56 21 -83 60 -98
11 -4 15 -12 12 -21 -5 -13 1 -15 31 -13 56 5 86 57 50 87 -21 18 -1 40 37 40
37 0 68 16 68 36 0 8 7 17 15 20 10 4 15 19 14 48 -1 22 -4 31 -6 19 -5 -26
-43 -32 -62 -9 -17 20 -3 126 21 152 15 17 17 26 9 47 -7 17 -7 36 -1 49 8 22
9 21 15 -9 12 -53 25 -27 25 47 0 68 0 68 -30 75 -33 7 -60 -7 -60 -31 0 -19
-19 -18 -26 1 -8 21 -42 29 -60 14 -12 -10 -18 -10 -28 2 -26 27 -76 157 -76
197 0 43 17 102 30 102 4 0 10 9 13 20 3 13 14 20 28 20 12 0 19 3 16 7 -11
11 14 33 38 33 42 0 78 -46 89 -115 9 -53 41 -144 55 -158 8 -8 11 29 11 144
0 169 -3 179 -60 194 -14 3 -45 26 -69 50 l-44 44 27 36 c15 19 34 35 42 35 8
0 32 9 53 20 21 10 42 16 47 12 4 -4 1 4 -8 18 -13 21 -23 25 -64 25 -44 0
-49 -3 -52 -23 -5 -31 -21 -36 -64 -18 -40 17 -60 64 -38 91 10 12 15 12 37
-2 20 -13 29 -14 44 -5 10 7 31 12 46 12 16 0 45 3 66 6 l37 7 -1 256 c-1 173
-4 244 -10 218 -5 -20 -16 -48 -25 -62 -9 -13 -18 -51 -21 -84 -3 -33 -10 -58
-14 -55 -12 7 -11 67 0 79 14 15 1 64 -19 70 -22 7 -44 40 -53 77 -4 16 -15
28 -26 30 -11 2 -47 25 -80 53 -45 37 -57 53 -49 62 14 18 46 16 50 -2 3 -12
7 -12 34 1 26 12 33 23 36 52 4 32 -1 44 -37 87 -48 56 -67 118 -39 129 28 11
42 7 49 -13 3 -11 19 -26 35 -33 16 -7 31 -20 33 -30 3 -11 14 -16 36 -16 18
1 37 -4 43 -10 7 -7 22 -12 35 -12 l23 0 0 600 0 600 -274 0 -274 -1 -12 -44
c-7 -24 -10 -51 -7 -59 8 -21 -30 -66 -57 -66 -12 0 -35 14 -51 30 l-29 30 22
20 c12 12 22 24 22 28 0 4 -20 15 -45 25 -25 11 -45 22 -45 27 0 4 -23 8 -50
9 -28 0 -50 -4 -50 -9 0 -6 -7 -10 -15 -10 -8 0 -15 5 -15 10 0 6 -4 10 -10
10 -5 0 -7 -6 -5 -13 3 -6 -4 -18 -15 -24 -16 -11 -18 -10 -14 1 3 8 1 17 -4
20 -5 3 -13 -10 -16 -29 -4 -19 -10 -35 -13 -35 -3 0 -25 18 -49 40 -42 39
-64 49 -64 31 0 -18 -46 -20 -94 -3 -38 13 -50 14 -53 5 -3 -7 -15 -13 -28
-13 -12 0 -25 -7 -28 -15 -4 -8 -24 -23 -46 -34 -22 -12 -44 -28 -49 -37 -6
-11 -11 -13 -16 -5 -4 6 -19 11 -33 11 -14 0 -42 12 -60 26 -27 20 -34 32 -30
51 l4 24 -139 -2 -140 -1 5 -64 c3 -53 1 -66 -15 -81 -17 -15 -20 -15 -28 -3
-6 8 -10 27 -10 42 0 14 -3 33 -6 42 -4 12 0 16 16 16 30 0 22 32 -10 41 -59
16 -114 5 -80 -16 13 -8 13 -45 -1 -45 -5 0 -17 16 -25 35 l-14 35 -133 0
c-130 -1 -132 -1 -109 -19 12 -11 22 -24 22 -29 0 -5 7 -12 15 -16 19 -7 19
-40 0 -56 -8 -7 -15 -21 -15 -31 0 -20 2 -21 -52 28 -7 7 -33 37 -58 68 -36
44 -51 55 -76 55 -16 0 -39 -7 -50 -15 -21 -16 -64 -20 -64 -6 0 5 6 12 12 14
7 3 3 6 -9 6 -12 1 -24 -5 -27 -11 -5 -10 -7 -10 -12 0 -4 9 -60 12 -230 12
-202 0 -224 -2 -224 -17 0 -15 -1 -15 -18 0 -14 13 -38 17 -108 17 -80 -1 -87
-2 -70 -15 11 -8 26 -15 33 -15 8 0 25 -8 40 -17 15 -10 41 -16 63 -14 42 3
97 -24 148 -72 39 -38 40 -51 5 -74 -16 -10 -33 -24 -38 -31 -32 -40 -175 41
-238 136 -17 25 -36 42 -48 42 -10 0 -31 14 -46 30 l-26 30 -198 0 c-149 0
-198 -3 -202 -12 -4 -10 -7 -10 -18 0 -19 17 -459 18 -441 0 14 -14 16 -48 3
-48 -15 0 -33 29 -27 45 5 13 -59 15 -558 15 -492 0 -565 -2 -570 -15 -7 -20
-62 -20 -70 0 -5 13 -31 15 -173 13 l-168 -3 -3 -30 c-1 -16 -7 -39 -11 -50
-5 -11 -15 -36 -22 -55 -7 -19 -16 -39 -21 -45 -10 -11 1 52 12 75 5 8 11 36
15 63 l7 47 -141 0 -141 0 -5 -27 c-3 -16 -11 -46 -17 -68 -6 -22 -10 -123
-10 -225 0 -179 -9 -260 -28 -260 -18 0 -38 103 -34 170 17 244 17 234 -10
267 -32 38 -32 43 -3 43 34 0 44 11 50 58 l5 42 -154 0 c-106 0 -154 -3 -154
-11 0 -6 11 -24 24 -40 14 -16 32 -55 41 -86 15 -52 16 -66 4 -128 -8 -38 -13
-80 -12 -92 2 -20 -3 -23 -34 -23 -20 0 -46 -9 -60 -20 -14 -11 -35 -20 -47
-20 -11 0 -42 -8 -68 -17 -41 -15 -56 -15 -110 -4 -35 7 -97 12 -138 13 -63 0
-78 4 -95 22 -11 12 -29 28 -41 36 -12 8 -30 33 -42 55 -11 22 -41 60 -67 85
-62 60 -77 92 -79 167 l-1 63 -177 -1 -178 -2 0 -25 c0 -14 -8 -34 -17 -44
-16 -17 -15 -20 17 -53 19 -19 35 -43 36 -52 1 -10 10 -48 20 -84 21 -79 13
-110 -38 -137 -17 -9 -40 -25 -50 -35 -11 -10 -26 -16 -33 -13 -17 6 -29 -9
-20 -24 4 -7 11 -7 18 -2 7 5 30 8 52 7 22 -2 45 1 50 6 7 5 28 -7 53 -30 50
-46 48 -71 -3 -71 -25 0 -35 -5 -40 -20 -14 -44 37 -66 69 -31 13 15 26 18 52
14 20 -3 34 -1 34 5 0 17 70 44 98 38 43 -10 92 -39 97 -57 3 -10 -5 -33 -19
-53 -13 -20 -26 -41 -28 -46 -2 -6 -29 -15 -62 -20 -32 -5 -65 -15 -73 -22
-12 -9 -16 -9 -24 3 -5 8 -9 17 -9 22 0 4 -8 7 -18 7 -10 0 -22 4 -28 9 -5 5
-54 11 -109 14 l-100 4 -12 34 c-19 54 -16 89 10 109 18 15 20 22 11 37 -14
23 -63 51 -91 52 -13 1 -29 11 -37 24 -21 32 -23 132 -4 155 23 25 89 154 83
160 -3 3 9 20 26 38 25 26 30 38 25 58 -6 26 -7 26 -106 26 -55 0 -100 -1
-101 -2 -1 -5 -19 -179 -24 -236 -3 -30 -14 -79 -24 -109 -17 -52 -18 -60 -4
-106 13 -45 13 -51 -3 -68 -14 -16 -15 -23 -4 -49 18 -44 8 -157 -16 -181 -11
-10 -37 -19 -59 -21 -34 -3 -41 0 -53 25 -7 15 -19 27 -26 27 -7 0 -18 11 -24
25 -7 15 -8 25 -2 25 6 0 10 -6 10 -13 0 -13 46 -44 54 -36 2 2 6 27 9 54 4
28 9 59 12 71 8 26 -48 140 -76 154 -22 12 -25 45 -6 86 17 41 68 114 78 114
5 0 2 16 -6 36 -19 46 -19 44 5 44 13 0 27 12 38 32 9 18 34 49 55 70 20 22
37 43 37 48 0 6 -115 10 -300 10 -276 0 -324 -4 -290 -25 6 -3 5 -15 -2 -30
-20 -44 -34 -27 -29 33 2 20 -2 22 -55 22 -87 0 -113 -43 -78 -131 13 -31 14
-43 5 -49 -25 -15 -11 -163 24 -247 21 -49 19 -67 -10 -101 -15 -18 -28 -49
-31 -75 -6 -40 -3 -48 20 -72 15 -15 28 -36 29 -46 1 -19 17 -27 17 -9 0 6 5
10 10 10 6 0 10 -8 10 -18 0 -22 19 -42 40 -42 9 0 25 -9 35 -20 10 -11 23
-20 29 -20 30 0 95 -34 100 -52 3 -15 11 -19 25 -15 17 4 19 2 11 -13 -7 -13
-5 -27 7 -48 18 -32 13 -60 -14 -68 -49 -15 -52 -22 -68 -144 -3 -25 -10 -49
-15 -54 -5 -5 -6 -22 -3 -37 5 -26 3 -29 -20 -29 -14 0 -28 4 -32 9 -13 22
-117 61 -144 54 -28 -7 -50 -29 -51 -52 0 -8 -8 -32 -17 -52 -15 -31 -23 -39
-46 -39 -44 0 -46 27 -4 66 33 32 35 37 25 62 -7 15 -17 34 -24 42 -7 8 -14
29 -16 45 -3 27 -7 30 -36 30 -23 0 -31 4 -27 13 3 8 5 22 5 33 0 10 5 19 10
19 6 0 10 -9 10 -20 0 -16 7 -20 30 -20 17 0 30 5 30 10 0 6 -4 10 -9 10 -16
0 -22 50 -10 93 6 23 14 36 16 30 3 -7 13 -13 23 -13 10 0 20 -5 22 -12 3 -7
11 -9 24 -3 17 7 18 8 1 12 -9 3 -24 18 -33 35 -9 18 -21 28 -29 24 -13 -5
-31 23 -49 77 -7 23 20 77 38 77 7 0 19 7 26 15 7 8 22 15 33 15 20 0 20 1 -4
26 -13 14 -24 37 -24 52 0 19 -10 33 -35 50 -45 30 -55 49 -41 76 15 26 9 182
-7 198 -20 20 -13 59 17 94 25 28 29 41 27 76 -2 24 -4 67 -4 96 l-2 52 -325
0 -326 0 23 -30 c15 -21 19 -33 11 -41 -7 -7 7 -44 46 -120 l56 -110 -20 -37
c-12 -21 -36 -46 -58 -57 -30 -16 -37 -25 -35 -45 3 -24 6 -25 88 -28 47 -1
95 -4 108 -7 27 -7 28 -32 2 -60 l-20 -22 21 -27 c32 -41 36 -97 9 -143 -12
-21 -31 -43 -41 -51 -10 -7 -19 -24 -19 -38 0 -13 -5 -33 -12 -43 -15 -24 -4
-49 25 -60 14 -5 27 -17 30 -25 4 -9 11 -16 17 -16 6 0 8 5 5 10 -4 6 6 10 23
10 30 0 72 -35 72 -61 0 -20 -20 -39 -41 -39 -14 0 -16 -8 -12 -44 4 -35 0
-53 -21 -89 -25 -42 -49 -63 -69 -58 -5 1 -6 -3 -2 -9 4 -6 2 -17 -4 -24 -6
-7 -10 -24 -9 -37 2 -18 -2 -24 -18 -24 -11 -1 -33 -8 -47 -18 -15 -9 -30 -17
-35 -17 -15 0 -109 -115 -135 -167 -14 -27 -25 -33 -74 -43 -52 -11 -60 -10
-102 11 -25 12 -48 22 -51 22 -3 -1 -6 21 -7 48 -3 47 -2 49 23 49 14 0 34 -4
44 -10 13 -7 21 -6 29 4 16 20 -43 69 -76 63 -19 -3 -24 1 -29 30 -4 19 -2 45
4 58 9 19 7 26 -9 41 -22 20 -25 67 -7 127 12 38 11 41 -19 68 -30 26 -31 28
-10 31 19 3 22 9 22 55 0 46 4 56 29 78 15 13 45 29 65 35 69 22 91 32 91 45
0 8 7 21 16 29 8 9 14 26 12 38 -3 20 -8 23 -40 20 -50 -5 -88 31 -88 82 0 29
5 38 29 50 19 10 30 26 35 47 5 26 1 36 -23 59 -17 15 -33 39 -36 53 -6 20
-16 29 -46 37 -48 13 -105 61 -113 95 -4 16 2 44 15 76 20 45 21 57 11 97 -6
26 -14 66 -17 90 l-7 42 -260 0 -260 0 7 -37z m6638 -107 c18 -14 45 -28 60
-31 24 -6 28 -12 26 -39 -1 -17 1 -43 5 -58 12 -43 -1 -51 -40 -22 -19 15 -34
31 -34 36 0 5 -7 16 -15 25 -14 14 -18 13 -35 -7 -11 -13 -20 -34 -20 -47 0
-26 -7 -28 -31 -10 -11 9 -15 28 -15 69 1 45 6 61 25 82 30 32 34 32 74 2z
m-4834 -277 c30 -28 38 -53 42 -129 4 -59 2 -65 -16 -68 -28 -4 -64 37 -77 85
-18 70 -20 93 -10 93 6 0 14 9 17 20 8 25 16 25 44 -1z m5959 -39 c23 -27 40
-36 90 -46 83 -17 116 -34 120 -62 3 -18 19 -30 68 -52 52 -24 64 -34 64 -52
0 -33 -8 -41 -73 -71 -83 -39 -104 -36 -71 12 15 21 15 24 -10 50 -14 15 -26
32 -26 37 0 16 -32 41 -60 46 -14 3 -33 9 -42 13 -15 6 -17 3 -12 -23 4 -21 2
-31 -10 -35 -9 -4 -16 -2 -16 3 0 6 -12 10 -27 10 -23 0 -28 -4 -28 -25 0 -20
2 -22 10 -11 9 12 15 11 35 -4 28 -21 19 -40 -19 -43 -25 -2 -26 -15 -5 -97
15 -59 14 -90 -3 -90 -4 1 -28 30 -53 66 -73 106 -80 114 -104 114 -32 0 -71
33 -86 72 -7 18 -24 59 -39 90 -26 57 -26 57 -63 51 -30 -4 -38 -2 -38 10 0 9
12 18 29 22 16 3 32 12 35 20 4 10 21 13 72 10 43 -3 72 0 84 8 10 7 46 12 84
12 63 -1 68 -3 94 -35z m-581 -82 c6 -7 13 -24 16 -38 4 -14 18 -30 32 -37 33
-15 82 8 91 43 4 16 13 24 28 24 12 0 27 5 32 10 18 18 42 0 60 -46 13 -34 16
-62 11 -119 -4 -62 -2 -78 12 -97 37 -48 33 -111 -5 -74 -22 23 -41 20 -60
-10 -23 -34 -37 -19 -66 71 -21 65 -25 70 -50 68 -27 -2 -32 2 -109 83 -9 9
-26 25 -39 36 -16 15 -20 26 -15 46 12 48 41 67 62 40z m2533 -192 c12 -22 12
-30 3 -33 -7 -3 -13 -13 -13 -24 0 -11 -11 -24 -25 -31 -14 -6 -25 -15 -25
-20 0 -4 -11 -8 -23 -8 -13 0 -32 -9 -42 -20 -12 -13 -29 -19 -49 -18 -17 1
-45 -1 -61 -5 -41 -10 -61 8 -68 61 -5 38 -3 44 17 52 12 4 28 15 35 24 7 9
19 16 26 16 7 0 26 7 41 15 20 10 43 13 70 9 27 -4 44 -2 49 6 12 19 49 6 65
-24z m-2693 -18 c35 -29 -12 -98 -66 -98 -45 0 -140 56 -141 82 0 22 184 36
207 16z m-4855 -40 c46 -26 51 -37 51 -110 0 -79 -7 -88 -64 -88 -29 0 -41 6
-54 27 -17 25 -17 28 0 59 11 21 16 45 13 66 -6 40 -1 58 18 58 8 0 24 -6 36
-12z m4242 -121 c16 -21 17 -30 8 -39 -10 -10 -17 -10 -33 0 -18 11 -24 11
-38 -2 -10 -9 -25 -16 -34 -16 -29 0 -22 -60 13 -100 39 -46 37 -57 -5 -56
-27 1 -42 9 -60 31 -13 17 -24 36 -25 43 0 6 -4 12 -10 12 -15 0 -12 39 7 81
15 34 20 38 50 37 21 -1 44 7 61 20 32 25 40 24 66 -11z m1179 3 c15 -12 43
-21 72 -22 71 -4 68 -44 -2 -49 -11 -1 -43 -31 -43 -40 0 -5 11 -11 24 -15 13
-3 29 -17 37 -31 12 -22 11 -27 -7 -41 -16 -14 -19 -25 -14 -59 l5 -41 38 13
c20 7 37 9 37 4 0 -5 -8 -10 -17 -10 -17 -1 -17 -2 0 -6 9 -2 17 -9 17 -14 0
-6 -4 -8 -9 -5 -5 4 -22 2 -36 -4 -23 -9 -30 -7 -40 7 -8 10 -26 18 -42 18
-19 0 -31 7 -38 23 -10 23 -29 29 -40 12 -3 -5 -13 -10 -21 -10 -12 0 -12 4
-4 20 6 11 9 24 6 29 -5 8 30 25 47 22 14 -2 7 18 -18 47 -14 17 -25 36 -25
44 0 7 -7 23 -15 35 -14 20 -14 24 3 40 10 10 22 26 25 36 8 22 28 22 60 -3z
m-703 -55 c13 -14 29 -25 36 -25 20 0 44 -42 44 -77 0 -21 8 -40 20 -50 11
-10 20 -23 20 -29 0 -14 32 -24 75 -24 41 0 73 -24 77 -58 4 -39 49 -44 66 -7
17 36 15 73 -6 136 -20 57 -19 79 3 79 7 0 19 10 28 23 8 12 18 18 23 13 5 -5
3 -11 -4 -13 -8 -3 -4 -11 13 -24 18 -15 33 -18 58 -14 24 5 39 2 55 -12 24
-20 44 -82 22 -68 -9 5 -11 4 -6 -3 4 -7 14 -12 22 -12 8 0 14 -7 14 -17 0
-15 -1 -15 -18 0 -26 24 -53 21 -81 -8 -13 -14 -29 -25 -36 -25 -15 0 -31 -38
-21 -48 4 -3 25 -7 47 -8 32 -2 43 2 56 22 27 42 75 29 102 -27 9 -18 23 -34
31 -35 8 -2 24 -6 36 -9 14 -5 31 2 53 20 27 23 34 25 47 14 25 -20 36 -59 23
-75 -9 -10 -15 -11 -25 -3 -9 8 -15 5 -24 -10 -13 -25 -35 -27 -44 -6 -5 15
-65 22 -67 8 0 -5 -2 -18 -5 -31 -4 -24 11 -62 30 -74 7 -5 6 -8 -3 -8 -8 0
-20 8 -27 18 -10 14 -15 15 -25 5 -26 -25 -47 -15 -54 26 -7 44 -37 76 -77 83
-32 6 -53 -13 -64 -57 -4 -16 -10 -34 -14 -40 -5 -5 -11 -27 -15 -47 -4 -21
-10 -38 -14 -38 -3 1 -24 13 -45 29 -38 27 -42 27 -82 15 -50 -15 -87 -7 -133
27 -17 12 -34 20 -37 16 -8 -8 35 -97 47 -97 6 0 7 -5 4 -10 -3 -6 1 -13 9
-16 20 -8 20 -31 0 -64 -11 -19 -14 -20 -10 -5 3 11 -5 37 -19 60 -52 86 -58
101 -57 130 2 24 -5 35 -31 53 -18 12 -39 22 -45 22 -26 0 -10 32 23 46 19 8
35 20 35 28 0 7 9 20 21 27 21 14 21 15 3 52 -14 29 -34 46 -90 77 -39 21 -74
46 -77 54 -6 15 47 80 73 89 12 4 11 6 -3 6 -10 1 -15 6 -12 11 10 17 30 11
55 -15z m1184 -32 c6 -12 25 -28 43 -37 18 -9 38 -27 43 -42 6 -14 14 -23 19
-19 14 8 24 -14 13 -28 -6 -7 -12 -28 -14 -47 -2 -29 1 -37 20 -45 12 -5 25
-18 28 -28 3 -10 15 -22 27 -27 21 -8 20 -9 -5 -9 -16 -1 -28 4 -28 11 0 6 -9
3 -20 -7 -11 -10 -20 -24 -20 -31 0 -18 -86 -68 -151 -88 -30 -10 -60 -20 -66
-22 -7 -3 -17 6 -23 20 -12 32 2 74 27 83 10 3 25 13 34 22 8 9 38 34 67 55
28 22 51 41 49 42 -1 1 -29 6 -62 9 -62 7 -95 19 -95 34 0 5 16 21 35 35 30
23 33 30 25 47 -8 15 -7 23 5 35 8 9 12 20 9 25 -9 15 4 41 19 37 6 -3 16 -14
21 -25z m-6767 -132 c13 -36 19 -67 14 -70 -4 -3 -14 -23 -22 -43 -12 -34 -11
-41 9 -77 12 -21 22 -52 22 -68 0 -29 -24 -73 -40 -73 -22 0 -60 56 -61 90 -2
26 -3 29 -6 10 -3 -20 -13 -28 -45 -38 -38 -12 -43 -11 -62 7 -19 20 -19 22
-3 56 9 20 17 42 17 50 0 9 6 12 15 9 8 -4 16 -1 16 5 1 6 2 16 3 22 2 19 39
39 73 39 36 0 39 6 18 34 -15 20 -21 97 -8 110 18 18 39 -4 60 -63z m4911 19
c15 -17 36 -47 48 -68 28 -50 57 -64 117 -57 l49 6 -7 -29 c-6 -28 -5 -29 41
-36 25 -3 50 -3 56 0 5 3 19 3 31 0 18 -4 22 -13 24 -48 1 -24 -1 -37 -4 -30
-7 19 -75 14 -103 -8 -32 -25 -45 -25 -65 3 l-16 22 -16 -22 c-20 -30 -36 -29
-76 7 -27 23 -33 35 -30 57 4 22 2 25 -6 13 -6 -8 -11 -23 -11 -32 0 -10 -4
-18 -10 -18 -13 0 -30 34 -30 59 0 25 -19 38 -31 20 -6 -11 -11 -10 -27 4 -25
22 -33 21 -61 -8 -25 -27 -60 -32 -79 -13 -7 7 -12 8 -12 3 0 -6 -7 -18 -15
-29 -13 -18 -15 -17 -39 10 -16 18 -25 41 -26 62 l0 32 41 -6 c36 -6 44 -4 58
15 21 27 91 46 91 25 0 -8 8 -14 18 -15 12 0 13 -2 3 -6 -12 -5 48 -32 71 -33
8 0 -3 39 -26 92 -9 21 -16 42 -16 48 0 20 32 9 58 -20z m2859 -65 c87 0 120
-15 108 -47 -5 -13 -20 -16 -70 -15 -46 1 -69 -4 -82 -15 -10 -9 -30 -20 -45
-23 -28 -7 -34 2 -29 43 1 6 -3 12 -9 12 -15 0 -12 21 6 41 9 10 22 15 28 11
6 -4 48 -7 93 -7z m177 -87 c-10 -50 4 -81 47 -106 l40 -23 -23 -18 c-32 -25
-54 -31 -66 -19 -14 14 -82 28 -82 16 0 -5 -12 -20 -26 -33 -24 -22 -25 -27
-15 -57 6 -18 20 -41 30 -53 26 -28 37 -67 18 -59 -8 3 -17 14 -20 25 -7 26
-48 41 -66 24 -11 -11 -10 -18 8 -44 12 -17 29 -31 36 -31 31 0 60 -45 62 -98
2 -28 -2 -54 -8 -58 -14 -8 -57 32 -75 71 -32 67 -83 136 -136 185 -45 42 -51
70 -13 62 18 -3 25 0 25 11 0 21 18 31 55 32 23 0 30 5 35 25 3 14 15 27 28
30 26 6 72 66 72 94 0 28 27 54 56 52 21 -1 24 -5 18 -28z m-6386 -60 c6 -7
13 -30 17 -51 4 -20 11 -40 16 -42 4 -3 11 -27 15 -53 4 -25 13 -61 20 -79 19
-44 19 -45 -23 -37 -45 8 -63 20 -63 43 0 32 -25 52 -66 55 -44 3 -64 11 -64
27 0 6 -7 17 -15 25 -17 17 -21 49 -5 39 6 -3 10 -1 10 4 0 6 9 11 20 11 11 0
20 4 20 9 0 5 11 12 24 15 14 3 28 15 31 26 7 23 46 27 63 8z m3781 -84 c14
-28 33 -49 65 -69 9 -5 27 -38 40 -72 20 -52 22 -61 7 -56 -9 3 -23 12 -31 19
-14 11 -15 8 -12 -25 2 -21 -1 -42 -7 -45 -6 -4 -11 -16 -11 -27 0 -10 -4 -19
-10 -19 -17 0 -11 -21 10 -38 21 -19 40 -102 22 -102 -19 0 -91 92 -98 124 -5
31 -31 52 -87 70 -14 4 -17 12 -12 27 6 17 4 21 -9 16 -22 -9 -30 9 -27 67 1
39 7 55 23 67 21 16 23 16 41 -7 17 -22 20 -23 35 -8 15 15 18 14 39 -10 13
-15 23 -33 23 -40 0 -22 -29 -27 -55 -10 -28 18 -41 4 -25 -26 6 -11 13 -20
16 -20 25 0 135 73 124 83 -9 7 -96 47 -104 47 -26 0 -47 52 -26 65 6 3 10 15
10 27 0 19 2 19 23 6 12 -8 28 -28 36 -44z m2122 -16 c37 -22 39 -25 34 -58
-4 -19 -10 -37 -15 -40 -4 -3 -9 -14 -11 -25 -3 -14 -17 -23 -46 -30 -50 -12
-71 -30 -102 -90 -17 -32 -21 -49 -14 -53 14 -9 -5 -100 -24 -120 -7 -7 -13
-21 -13 -31 0 -22 -35 -55 -49 -46 -20 12 -11 -11 12 -32 30 -28 61 -43 89
-43 13 0 35 -6 50 -14 33 -17 39 -12 31 25 -3 17 0 35 7 44 7 8 10 23 7 34 -5
21 8 49 19 38 4 -4 10 -24 13 -44 5 -31 13 -41 41 -54 44 -21 52 -16 44 25 -5
30 -3 35 23 44 15 5 37 17 48 25 19 15 20 13 32 -51 8 -48 8 -76 0 -99 -10
-29 -13 -31 -45 -26 -26 5 -37 2 -44 -10 -5 -10 -22 -17 -40 -17 -17 0 -39 -7
-48 -15 -15 -13 -25 -13 -94 5 -42 11 -81 18 -85 16 -4 -3 -13 6 -19 19 -14
30 -36 32 -54 6 -7 -10 -23 -21 -35 -25 -28 -9 -29 -33 -3 -66 11 -14 20 -31
20 -39 0 -9 8 -12 27 -8 49 9 71 -10 75 -65 1 -28 0 -52 -3 -54 -4 -2 -19 6
-33 17 -25 19 -31 20 -99 9 -111 -17 -114 -18 -121 -42 -4 -17 0 -28 17 -42
12 -10 21 -27 19 -38 -3 -17 2 -19 39 -16 36 2 44 7 49 27 8 34 23 36 58 6 30
-25 108 -47 141 -38 9 2 29 -6 44 -19 25 -22 26 -28 23 -89 -4 -94 -13 -105
-67 -91 -28 7 -46 8 -49 1 -4 -5 -17 -1 -32 11 -15 11 -34 20 -43 20 -14 0
-13 -5 6 -32 13 -18 29 -38 37 -43 17 -13 6 -42 -18 -48 -13 -3 -17 -11 -13
-25 6 -25 -14 -92 -28 -92 -6 0 -20 5 -31 11 -18 9 -24 8 -35 -7 -12 -16 -11
-19 9 -27 13 -4 38 -5 56 -2 30 6 38 1 84 -44 35 -35 59 -51 81 -53 20 -2 32
-9 32 -18 0 -8 9 -14 19 -13 15 1 17 -6 15 -40 -3 -63 -1 -67 30 -78 31 -11
47 -37 32 -52 -5 -5 -21 -2 -41 8 -32 17 -33 17 -54 -10 l-21 -26 -23 31 c-17
23 -28 29 -43 25 -15 -5 -30 4 -59 34 -22 23 -40 45 -40 51 0 5 18 21 40 35
22 14 40 27 40 29 0 3 -7 12 -16 21 -15 14 -18 13 -41 -11 l-24 -26 -25 23
c-13 12 -27 20 -30 16 -4 -3 -10 -41 -14 -82 -4 -42 -12 -81 -17 -86 -7 -7
-21 0 -41 20 -18 19 -41 31 -56 31 -24 0 -26 4 -26 43 0 34 -7 49 -35 79 -19
20 -35 40 -35 44 0 11 -34 33 -52 34 -10 0 -28 -20 -44 -49 -33 -62 -49 -69
-69 -32 -25 49 -60 48 -86 -1 -7 -12 -5 -26 5 -46 12 -23 22 -29 48 -30 18 0
37 3 43 8 7 6 22 1 42 -12 27 -20 30 -26 26 -67 -3 -26 -6 -52 -8 -58 -7 -20
-36 -15 -62 9 -16 15 -34 21 -58 20 -30 -2 -36 2 -56 38 -13 22 -26 40 -31 40
-4 0 -8 11 -8 25 0 15 -6 25 -14 25 -14 0 -26 29 -26 68 0 16 5 22 17 20 35
-6 34 73 -2 108 -20 20 -19 43 2 51 18 7 57 -33 47 -48 -9 -15 25 -10 53 8 24
16 26 16 39 -2 15 -21 15 -21 32 18 10 23 18 28 40 26 45 -5 55 8 32 41 -16
22 -19 38 -14 67 l6 39 66 -2 c61 -3 71 0 112 29 25 18 46 31 48 29 1 -1 7 -2
12 -2 19 0 10 22 -29 68 -21 26 -41 55 -45 65 -5 15 -13 18 -44 12 -34 -5 -39
-3 -55 24 -19 32 -23 71 -7 71 16 0 12 30 -8 55 -15 19 -20 47 -13 73 1 2 11
-4 23 -12 41 -29 89 -13 59 20 -5 5 -12 19 -15 30 -6 19 -2 22 31 27 32 4 43
0 71 -26 32 -31 43 -24 20 13 -10 16 -9 25 5 49 23 40 21 64 -8 99 -24 29 -69
40 -81 21 -3 -5 -12 -5 -22 0 -9 5 -35 12 -57 15 -31 5 -44 14 -58 37 -9 17
-17 39 -17 49 0 22 16 35 25 20 3 -5 15 -10 26 -10 10 0 19 -4 19 -9 0 -18 52
-22 69 -6 10 8 27 15 39 15 28 0 28 2 -8 52 -26 35 -30 50 -28 88 3 38 6 45
26 48 19 3 22 -1 22 -33 0 -46 15 -75 39 -75 11 0 21 -7 25 -15 8 -22 3 -30
-16 -27 -22 4 -32 -14 -12 -22 8 -3 13 -10 9 -16 -3 -5 6 -12 21 -16 14 -4 29
-2 33 3 3 6 21 14 40 18 32 7 33 9 27 44 -6 39 -47 84 -69 75 -8 -3 -19 6 -25
21 -17 38 -15 55 8 55 11 0 20 4 20 8 0 5 13 22 30 38 24 24 28 35 24 61 -5
27 -1 36 22 57 16 14 35 26 42 26 14 0 73 24 102 40 27 16 70 11 111 -12z
m-5683 -114 c12 -13 15 -33 14 -83 -3 -80 -21 -111 -62 -111 -24 0 -33 7 -50
40 -33 65 -22 113 36 151 35 23 41 23 62 3z m3346 -21 c6 -15 9 -15 17 -3 9
13 10 13 6 -1 -3 -9 4 -31 15 -49 l20 -34 -23 -16 c-12 -10 -19 -22 -15 -29 5
-7 -1 -11 -16 -11 -19 0 -28 10 -42 41 -17 37 -20 40 -29 23 -6 -11 -18 -24
-26 -31 -9 -6 -14 -13 -11 -15 3 -2 18 -10 35 -18 16 -9 31 -24 33 -34 2 -10
0 -16 -6 -12 -5 3 -13 -1 -16 -10 -9 -23 -36 1 -36 32 0 20 -5 23 -39 22 -42
0 -64 8 -56 22 3 5 1 11 -5 15 -12 8 -13 25 -1 25 5 0 11 -8 14 -18 5 -21 45
-36 44 -18 0 6 1 26 1 45 2 30 5 33 27 29 15 -3 22 -1 18 5 -4 6 7 7 31 3 35
-7 36 -6 36 24 0 33 14 40 24 13z m3047 2 c64 -3 79 -9 79 -33 0 -12 -3 -13
-12 -4 -19 19 -28 14 -28 -13 0 -18 5 -25 20 -25 11 0 20 -7 20 -15 0 -9 -9
-15 -25 -15 -14 0 -25 -4 -25 -9 0 -4 -20 -2 -45 6 -29 10 -47 23 -51 37 -4
11 -17 32 -30 45 -33 33 -31 45 9 36 17 -4 57 -9 88 -10z m-5188 -34 c3 -11
-1 -26 -9 -32 -12 -10 -12 -14 3 -25 22 -16 83 -8 98 13 6 8 29 16 50 17 22 1
49 7 61 13 19 11 138 9 173 -3 7 -2 31 1 53 7 22 6 44 7 49 2 5 -5 46 -4 91 0
161 17 190 14 280 -34 10 -5 24 -9 32 -9 8 0 28 -13 44 -30 17 -16 33 -30 37
-30 3 0 21 -11 39 -25 18 -14 38 -25 45 -25 7 0 10 -4 7 -9 -3 -5 4 -15 17
-24 12 -8 28 -32 36 -53 7 -21 30 -61 50 -88 44 -61 81 -140 81 -172 0 -31 26
-94 38 -94 6 0 13 -12 17 -27 3 -15 20 -40 36 -57 34 -35 34 -38 13 -72 -15
-21 -15 -32 -4 -83 11 -52 14 -57 35 -53 19 3 26 -4 49 -53 14 -32 26 -66 26
-76 0 -35 -20 -29 -40 13 -11 24 -31 57 -45 73 l-25 30 6 -76 c8 -95 -4 -123
-46 -114 -36 8 -70 -22 -70 -61 0 -15 -5 -56 -12 -91 -14 -77 -7 -86 62 -79
41 4 47 1 80 -35 23 -25 51 -44 80 -52 66 -19 79 -51 50 -123 -21 -52 -22
-110 -3 -161 8 -20 33 3 33 31 0 11 6 32 13 46 10 20 21 25 52 26 43 2 135 39
135 54 0 6 8 10 19 10 26 0 34 37 11 58 -17 16 -17 20 -4 57 8 22 17 58 19 80
6 57 54 203 72 221 9 9 22 12 32 8 9 -4 27 -8 40 -9 13 -1 29 -9 36 -18 19
-27 32 -20 40 21 6 31 1 48 -27 104 -18 36 -43 72 -55 78 -23 14 -33 38 -33
88 0 22 5 32 15 32 8 0 15 -4 15 -10 0 -5 5 -10 11 -10 11 0 8 48 -7 114 -6
27 -6 28 17 16 31 -16 69 -51 69 -63 0 -5 -7 -15 -15 -21 -24 -17 -36 -103
-19 -134 8 -15 14 -30 14 -34 0 -11 37 -47 43 -42 7 8 77 -81 77 -98 0 -21 52
-98 67 -98 16 0 26 35 18 70 -3 16 -1 38 5 49 8 15 8 21 0 21 -6 0 -9 4 -5 10
8 13 -5 60 -16 60 -5 0 -13 -10 -18 -22 -8 -22 -8 -22 -18 -3 -19 35 -26 87
-14 94 14 9 111 -10 111 -21 0 -4 13 -21 30 -38 21 -22 39 -30 63 -30 19 0 40
-7 47 -15 7 -8 24 -15 39 -15 33 0 79 -47 87 -90 4 -18 16 -36 30 -43 l24 -13
-22 -39 c-13 -25 -22 -63 -25 -102 l-3 -63 25 10 c14 5 37 17 51 27 25 16 26
21 21 73 -4 45 0 67 17 105 29 61 40 40 21 -40 -16 -71 -7 -76 71 -45 l55 23
27 -20 c38 -28 40 -68 7 -99 -14 -13 -35 -24 -46 -24 -21 0 -80 -27 -89 -41
-3 -4 -23 -9 -45 -11 -30 -2 -41 -8 -43 -22 -4 -17 0 -18 35 -10 21 4 56 8 78
9 56 2 85 14 85 33 1 10 6 4 14 -13 21 -45 42 -69 55 -61 8 5 8 13 1 26 -14
27 4 35 30 13 11 -10 24 -18 28 -18 4 -1 16 -6 27 -12 11 -6 40 -13 65 -14 39
-3 46 -1 55 19 9 21 14 23 55 17 50 -8 59 -17 60 -60 l1 -30 24 30 c30 36 31
45 5 52 -23 6 -25 14 -8 31 18 18 38 15 39 -5 1 -12 4 -10 9 7 8 23 9 23 10
-10 7 -125 5 -157 -12 -173 -23 -23 -33 -21 -56 11 -17 22 -23 25 -33 15 -7
-7 -17 -13 -21 -13 -4 0 -8 6 -8 13 -1 32 -70 79 -70 47 0 -5 -6 -7 -14 -4 -8
3 -17 1 -21 -5 -3 -6 -17 -11 -31 -11 -13 0 -34 -11 -46 -25 -22 -26 -52 -33
-63 -15 -14 23 -23 7 -20 -37 3 -29 10 -50 20 -55 8 -5 15 -20 15 -33 0 -36
26 -31 34 7 6 29 7 30 24 16 9 -9 27 -19 40 -22 12 -4 22 -11 22 -15 0 -8 44
-31 60 -31 5 0 11 8 15 18 5 17 15 19 75 16 l70 -2 0 31 c0 49 13 61 67 61 35
1 57 8 83 27 42 32 86 41 101 23 6 -8 9 -14 5 -14 -4 0 0 -12 7 -27 21 -42 28
-90 16 -120 -8 -22 -7 -30 6 -40 20 -14 45 -7 45 14 0 8 23 38 51 68 35 37 49
59 45 72 -7 24 75 61 119 53 26 -4 30 -10 33 -39 2 -21 12 -41 27 -53 13 -10
29 -34 35 -54 11 -33 15 -36 43 -30 17 3 33 8 35 11 3 2 -3 25 -13 50 -19 51
-17 60 15 50 19 -6 21 -13 18 -51 -2 -24 0 -44 5 -44 4 0 21 -10 36 -21 27
-20 51 -19 51 1 0 20 -56 101 -73 106 -15 5 -17 12 -12 32 4 15 11 29 16 30 5
2 9 11 9 19 0 23 27 -2 34 -32 4 -16 11 -22 20 -19 19 7 56 -13 56 -31 0 -22
71 -118 81 -108 4 4 10 20 14 34 5 22 0 30 -32 54 -52 39 -61 51 -55 80 5 30
37 33 89 8 51 -24 74 -100 39 -126 -21 -16 -11 -47 14 -47 11 0 22 -5 25 -11
4 -6 24 -9 45 -8 25 2 43 -3 55 -15 18 -18 17 -19 -15 -47 -37 -33 -42 -34
-70 -17 -15 10 -24 9 -44 -2 -19 -10 -32 -11 -49 -3 -31 14 -57 -1 -57 -32 0
-33 23 -43 102 -42 42 0 72 -4 83 -13 20 -17 16 -56 -6 -52 -9 1 -19 -5 -23
-13 -3 -9 -10 -14 -15 -11 -5 3 -14 -1 -21 -9 -11 -13 -16 -12 -40 5 -32 23
-60 17 -60 -11 0 -15 -7 -19 -34 -19 -25 0 -40 -7 -55 -26 -12 -15 -21 -32
-21 -38 0 -6 -16 -36 -35 -66 -47 -73 -47 -73 12 -167 20 -33 63 -159 63 -188
0 -33 25 -70 43 -67 10 2 17 -4 17 -13 0 -9 -4 -14 -9 -11 -14 9 -41 -4 -41
-20 0 -8 5 -14 10 -14 6 0 18 -8 29 -19 15 -15 17 -26 10 -72 -4 -30 -10 -61
-13 -69 -10 -24 51 -100 79 -100 13 0 30 -7 39 -15 8 -8 19 -15 25 -15 6 0 11
-4 11 -10 0 -13 27 -13 32 -1 2 5 15 7 31 4 23 -5 27 -10 27 -39 0 -19 -4 -34
-10 -34 -5 0 -13 -12 -16 -26 -5 -19 -9 -22 -15 -12 -6 8 -9 9 -9 1 0 -6 7
-18 15 -26 8 -8 11 -17 8 -21 -13 -12 14 -6 33 9 38 29 81 11 86 -37 3 -21 -1
-23 -33 -20 -55 4 -89 -12 -89 -43 0 -15 5 -36 11 -47 10 -18 9 -20 -9 -16
-13 4 -23 0 -26 -9 -10 -24 -7 -31 14 -38 14 -5 20 -15 20 -37 0 -30 1 -30 40
-24 33 5 41 3 50 -14 18 -34 -2 -55 -56 -58 -54 -2 -73 -16 -88 -64 -11 -33
-43 -50 -55 -29 -4 6 -20 13 -37 17 -28 5 -30 3 -41 -38 -18 -63 -21 -180 -5
-185 6 -3 12 -11 12 -19 0 -8 6 -13 13 -11 7 1 11 -6 9 -18 -2 -11 -3 -48 -3
-82 0 -56 -2 -63 -19 -63 -11 0 -24 -9 -30 -20 -9 -16 -15 -18 -30 -10 -18 10
-20 7 -20 -22 -1 -18 -7 -46 -14 -63 -10 -23 -19 -30 -45 -31 -42 -2 -45 -7
-33 -44 11 -29 10 -30 -16 -24 -33 9 -44 23 -37 50 7 31 -18 50 -38 29 -9 -8
-23 -15 -32 -15 -24 0 -29 -28 -11 -66 9 -19 16 -43 16 -54 0 -17 -2 -18 -27
-4 -37 18 -40 18 -46 -7 -6 -21 -7 -21 -46 11 -38 29 -41 34 -35 69 6 37 5 38
-50 70 -46 25 -60 29 -76 21 -11 -6 -25 -8 -30 -5 -6 3 -15 -5 -21 -19 -7 -14
-16 -23 -21 -20 -4 3 -11 -2 -14 -10 -16 -42 -70 20 -59 67 6 21 65 65 65 48
0 -10 59 -1 66 11 7 12 -15 68 -27 68 -5 0 -11 0 -14 0 -3 0 -18 6 -35 15 -16
8 -42 15 -58 15 -58 0 -91 60 -53 94 23 21 28 46 10 46 -8 0 -9 13 -5 39 8 52
-5 61 -87 59 -63 -1 -67 -2 -67 -24 0 -19 -5 -24 -25 -24 -28 0 -32 -12 -10
-30 26 -21 19 -78 -14 -111 -35 -34 -47 -36 -54 -9 -3 11 -11 20 -17 20 -8 0
-10 -9 -6 -26 l7 -25 -66 2 c-72 2 -90 -5 -61 -27 18 -13 18 -14 2 -14 -10 0
-14 -5 -11 -11 4 -6 -1 -16 -11 -24 -18 -13 -16 -14 12 -13 24 1 33 7 40 27
l9 26 22 -22 c38 -38 58 -44 71 -22 7 11 10 24 7 29 -4 6 0 10 8 10 18 0 29
-24 21 -45 -4 -10 3 -18 22 -25 35 -14 46 -3 35 35 -8 30 4 73 24 87 5 4 24
-6 40 -22 17 -17 36 -30 42 -30 6 0 13 -23 15 -55 1 -30 2 -55 2 -55 -1 0 -14
6 -29 14 -38 20 -65 7 -80 -38 -17 -48 -21 -52 -41 -35 -14 11 -19 10 -35 -9
-26 -32 -15 -54 19 -40 15 5 45 12 67 14 77 7 117 17 122 30 10 27 22 13 34
-42 7 -31 19 -58 26 -61 7 -3 13 -13 13 -23 0 -23 31 -31 61 -14 44 24 52 19
46 -31 -5 -47 -16 -69 -24 -48 -4 10 -11 9 -33 -2 -32 -17 -40 -12 -40 26 0
15 -6 29 -13 32 -21 8 -68 -4 -74 -19 -6 -16 -39 -19 -48 -4 -3 6 -19 10 -35
10 -42 0 -111 29 -135 55 -11 13 -30 26 -42 29 -31 10 -73 63 -73 93 0 26 -29
83 -41 83 -4 0 -14 7 -22 15 -13 13 -17 10 -31 -19 -13 -28 -24 -36 -55 -41
-25 -4 -48 -2 -63 6 -37 20 -88 63 -88 75 0 7 -10 9 -25 6 -43 -8 -75 7 -97
44 -15 25 -26 34 -39 31 -10 -3 -20 0 -21 5 -2 6 -35 13 -73 16 -50 3 -82 11
-110 28 -22 13 -48 27 -59 31 -10 3 -61 28 -113 54 -51 27 -119 56 -151 65
-31 9 -61 20 -67 24 -5 4 -31 11 -57 14 -30 5 -68 21 -100 43 -29 19 -63 39
-75 44 -12 4 -45 24 -73 43 -28 20 -67 38 -86 42 -40 7 -69 40 -86 98 -7 22
-25 61 -40 85 -15 25 -28 50 -28 55 0 41 -95 186 -121 186 -4 0 -6 -57 -4
-127 2 -70 -1 -135 -6 -144 -6 -11 -5 -20 1 -24 5 -3 10 -12 10 -18 0 -8 -3
-8 -9 1 -10 17 -23 -53 -15 -84 3 -13 -5 -45 -20 -78 -14 -31 -26 -62 -26 -69
0 -7 -4 -17 -9 -22 -5 -6 -12 -27 -15 -47 -6 -31 -4 -38 9 -38 17 0 19 -12 6
-38 -15 -30 -31 -88 -31 -114 0 -14 -8 -33 -19 -42 -10 -9 -31 -52 -47 -94
-15 -42 -45 -110 -66 -151 -21 -40 -38 -82 -38 -93 0 -10 -7 -21 -15 -24 -8
-4 -15 -18 -15 -34 0 -44 -39 -143 -65 -168 -14 -13 -25 -32 -25 -43 0 -11
-11 -42 -25 -69 -30 -60 -31 -77 -5 -85 34 -11 44 -42 22 -73 -26 -38 -62
-138 -62 -173 0 -35 -20 -77 -48 -100 -11 -9 -30 -43 -42 -75 -19 -52 -20 -59
-6 -70 18 -12 22 -44 6 -44 -5 0 -9 3 -9 8 3 19 -2 23 -16 12 -8 -7 -15 -24
-15 -39 0 -18 -7 -29 -22 -36 -13 -6 -24 -20 -26 -32 -2 -13 -9 -23 -15 -24
-7 0 -1 -5 13 -10 l25 -10 -31 -28 c-17 -16 -35 -30 -40 -32 -5 -2 -42 -69
-82 -149 -91 -180 -141 -272 -152 -284 -15 -15 -39 13 -77 88 -59 118 -143
248 -199 306 -65 67 -93 128 -169 365 -32 99 -69 205 -82 235 -56 126 -99 207
-125 238 -15 18 -28 39 -28 47 0 7 -38 60 -85 116 -69 84 -86 111 -91 147 -7
48 -10 188 -5 237 2 17 -2 48 -7 70 -6 22 -16 72 -22 110 -6 39 -17 106 -26
150 -44 236 -50 299 -48 485 3 216 6 243 19 250 6 3 17 -10 25 -27 9 -20 20
-31 28 -28 15 6 80 -57 101 -97 8 -15 19 -24 27 -21 9 3 14 -2 14 -17 0 -25
71 -100 95 -100 8 0 15 -7 15 -15 0 -18 89 -87 103 -78 5 3 18 -5 28 -18 10
-13 21 -20 25 -16 4 4 0 15 -10 26 -16 18 -16 19 14 23 17 3 33 1 36 -3 2 -5
17 -4 31 2 14 5 29 6 32 2 3 -4 21 -9 40 -9 18 -1 36 -6 40 -13 15 -24 73 -30
180 -19 87 9 111 15 134 34 32 27 87 30 87 5 0 -13 2 -12 13 1 13 17 87 32 87
17 0 -5 10 -9 21 -9 12 0 27 -6 33 -13 6 -7 10 -10 9 -8 -5 8 48 51 63 51 7 0
14 4 14 9 0 4 11 6 24 4 18 -4 29 2 41 21 10 14 23 26 29 26 7 0 37 28 66 61
61 69 54 63 146 144 111 98 164 157 164 182 0 12 5 25 10 28 14 9 60 101 60
120 0 8 9 24 21 36 11 11 18 26 15 34 -2 7 9 31 25 54 22 29 32 56 36 96 6 54
5 55 -20 55 -22 0 -28 -6 -36 -38 -10 -35 -60 -114 -87 -137 -7 -5 -14 -19
-16 -30 -2 -11 -19 -28 -41 -38 -20 -9 -43 -26 -49 -37 -7 -11 -21 -20 -30
-20 -10 0 -18 -4 -18 -9 0 -15 -30 -41 -46 -41 -8 0 -14 10 -14 25 0 27 -17
34 -26 11 -3 -8 -12 -12 -20 -9 -9 3 -14 -2 -14 -16 0 -12 -6 -21 -14 -21 -8
0 -16 -5 -18 -12 -2 -6 -18 -11 -35 -10 -18 0 -37 -6 -44 -14 -6 -8 -27 -14
-47 -14 -26 0 -42 -8 -63 -30 -16 -16 -29 -37 -29 -46 0 -13 -6 -15 -32 -10
-42 8 -59 24 -52 50 3 12 -2 38 -10 58 -15 35 -17 36 -56 31 -26 -4 -40 -2
-40 6 0 6 7 11 15 11 24 0 31 31 10 46 -12 9 -16 20 -12 37 5 19 12 22 39 19
26 -3 44 5 88 38 47 34 57 48 67 88 6 26 12 76 12 111 1 55 4 66 26 83 28 22
32 38 10 38 -8 0 -15 7 -15 16 0 8 -17 31 -37 51 -30 28 -47 35 -83 37 -25 2
-65 12 -90 23 -29 14 -60 20 -86 18 -37 -3 -43 0 -60 28 -14 25 -19 28 -22 15
-4 -20 7 -32 55 -66 34 -24 70 -100 59 -128 -5 -14 -11 -13 -49 9 -59 34 -104
43 -125 24 -14 -13 -42 -15 -132 -14 -64 0 -121 -2 -128 -6 -6 -5 -24 -1 -40
7 -16 8 -56 18 -88 21 -33 3 -90 10 -128 17 -61 10 -69 10 -78 -5 -5 -9 -23
-24 -39 -33 -22 -11 -29 -21 -27 -37 2 -17 9 -21 28 -19 14 2 50 2 80 1 92 -3
140 -2 255 10 106 11 112 10 160 -13 60 -28 132 -38 278 -38 128 1 149 -5 167
-48 11 -28 11 -36 -4 -61 -9 -16 -15 -33 -12 -38 12 -18 -7 -42 -55 -68 -38
-20 -49 -32 -50 -52 -1 -17 -3 -20 -6 -8 -7 27 -23 20 -23 -10 0 -38 -17 -63
-29 -44 -5 7 -14 10 -20 7 -16 -11 -13 -46 4 -46 15 0 22 -30 8 -30 -5 0 -16
-12 -26 -26 -13 -18 -16 -29 -8 -37 5 -7 7 -17 3 -23 -13 -18 -61 -44 -81 -44
-11 0 -25 -9 -31 -21 -11 -20 -69 -51 -81 -43 -4 2 -42 6 -85 10 -71 5 -81 4
-101 -15 -24 -23 -49 -27 -55 -10 -2 6 -15 13 -28 15 -74 12 -92 18 -113 40
-13 13 -49 33 -80 45 -32 12 -57 26 -57 30 0 20 -38 8 -44 -13 -5 -20 -7 -21
-19 -8 -22 23 -28 95 -10 120 8 12 13 30 10 41 -3 10 -1 19 5 19 6 0 8 6 5 14
-3 7 1 23 9 35 8 12 13 25 9 31 -8 13 5 60 17 60 5 0 9 -19 8 -42 -1 -24 -1
-48 -1 -54 2 -23 59 -37 167 -40 84 -3 121 -8 155 -24 53 -24 76 -25 96 -5 12
13 36 15 140 10 80 -3 131 -1 138 5 7 6 19 9 26 8 9 -2 13 8 14 30 0 20 7 39
18 47 12 9 14 15 7 20 -6 4 -8 14 -5 23 3 11 -7 28 -26 46 l-30 29 -35 -19
c-78 -42 -95 -80 -44 -102 39 -18 38 -26 -5 -29 -25 -2 -37 2 -45 16 -13 26
-40 31 -209 36 -111 4 -152 9 -180 22 -20 10 -35 24 -33 31 1 6 -4 12 -12 12
-8 0 -17 9 -21 19 -5 16 -15 19 -75 19 -39 -1 -70 -5 -70 -9 0 -15 -29 -10
-49 9 -11 9 -27 23 -35 30 -20 16 -21 42 -2 42 12 0 12 6 0 41 -8 22 -21 51
-29 63 -22 33 -11 51 38 62 27 6 41 14 39 23 -2 7 10 25 25 40 16 14 37 38 46
54 13 20 26 27 48 27 26 0 30 2 19 15 -19 23 -2 35 51 35 35 0 48 3 43 12 -5
8 3 9 30 5 34 -5 37 -4 51 30 14 32 14 39 0 60 -26 38 -111 30 -156 -16 -9 -9
-41 -38 -72 -65 -32 -28 -57 -55 -57 -62 0 -7 -19 -12 -50 -13 -36 0 -57 -7
-73 -21 -12 -11 -33 -28 -46 -38 -19 -15 -23 -28 -25 -77 -1 -52 -5 -61 -24
-70 -13 -6 -22 -19 -22 -32 0 -27 7 -29 31 -8 15 15 17 12 23 -42 15 -123 38
-238 49 -248 27 -22 46 -94 53 -192 l6 -102 -43 17 c-25 9 -49 28 -58 44 -12
21 -24 28 -46 28 -39 1 -65 21 -65 52 0 14 -9 33 -20 43 -11 10 -20 31 -20 46
0 39 -20 79 -40 79 -22 0 -40 20 -40 43 0 17 -22 51 -65 100 -8 9 -15 25 -15
35 0 10 -4 22 -9 28 -5 5 -11 27 -14 49 -8 62 -26 124 -45 153 -16 25 -26 47
-52 122 -25 70 -65 156 -90 192 -25 38 -71 65 -88 54 -15 -9 -42 4 -42 20 0 8
5 14 11 14 5 0 7 5 4 10 -7 11 45 2 55 -9 3 -3 11 -6 18 -6 7 0 18 -11 25 -24
20 -41 40 -39 35 3 -2 20 0 36 4 36 4 0 8 15 8 33 0 39 -36 78 -51 56 -6 -9
-12 -10 -16 -4 -5 6 -24 12 -44 14 -35 2 -37 0 -43 -33 -6 -30 -12 -37 -44
-46 -58 -16 -79 -12 -114 19 -18 15 -44 32 -58 36 -14 4 -40 18 -58 32 -46 34
-99 55 -107 42 -4 -5 -18 -14 -31 -19 -13 -5 -35 -27 -48 -49 l-25 -40 -88 -3
c-51 -2 -93 1 -100 7 -16 13 -21 161 -5 177 8 8 18 8 40 -1 16 -7 42 -10 58
-8 22 3 29 9 29 27 0 17 -15 32 -63 61 l-63 38 -6 -30 c-3 -16 -14 -34 -24
-40 -29 -15 -49 -61 -37 -83 15 -27 3 -96 -26 -151 -19 -36 -23 -52 -16 -66 8
-14 6 -20 -7 -26 -20 -10 -100 -9 -110 1 -18 18 -58 -21 -67 -66 -6 -32 -31
-34 -32 -2 0 10 -4 32 -8 48 -7 22 -5 31 7 38 9 5 22 18 28 30 11 20 10 21
-28 15 -35 -6 -42 -3 -72 28 l-33 35 27 10 c31 12 95 -13 95 -36 0 -14 11 -16
77 -19 31 -1 33 2 38 40 3 22 6 62 7 90 3 45 1 50 -24 63 -40 19 -35 34 7 26
l35 -6 0 41 c0 35 3 41 20 41 18 0 20 4 15 34 -4 19 -2 43 5 56 10 18 8 25
-15 46 -14 13 -30 24 -35 24 -4 0 -10 5 -12 12 -7 20 -39 0 -51 -32 -8 -21
-18 -30 -33 -30 -18 0 -21 4 -16 22 5 19 2 21 -26 15 -19 -4 -42 0 -61 9 -22
11 -44 14 -71 9 -33 -6 -40 -4 -40 9 0 9 -12 24 -27 34 -32 20 -38 35 -23 62
8 15 6 21 -10 30 -23 12 -26 52 -10 111 7 25 7 46 0 64 -8 20 -7 31 2 42 20
25 56 34 78 20 20 -12 28 -47 10 -47 -5 0 -7 -13 -4 -30 5 -22 2 -31 -10 -36
-22 -9 -19 -26 8 -46 28 -20 58 -14 71 14 6 12 16 24 23 26 10 3 11 -8 6 -50
l-7 -53 31 28 c21 21 36 27 50 22 15 -4 24 0 32 14 6 12 21 23 35 27 19 5 32
-3 66 -40 48 -52 59 -56 59 -23 1 30 29 64 60 72 19 5 33 0 53 -19 32 -30 40
-31 59 -12 10 9 34 12 81 10 65 -3 67 -2 67 22 0 13 -2 24 -4 24 -2 0 -11 3
-20 6 -9 4 -25 -5 -41 -22 -19 -20 -25 -23 -25 -10 0 10 -23 27 -62 46 l-63
30 58 -4 57 -5 0 44 c0 38 3 44 26 49 35 9 64 -1 57 -20 -6 -15 32 -21 41 -6
6 10 -30 52 -44 52 -6 0 -10 7 -10 15 0 8 4 15 9 15 5 0 14 -7 21 -15 33 -40
41 2 9 47 -25 34 -21 95 7 115 12 9 15 21 10 46 -3 18 -3 37 1 41 5 4 9 62 11
129 2 111 7 196 11 222 1 6 7 1 13 -10 7 -11 13 -55 14 -97 2 -91 12 -108 65
-108 33 0 40 -4 45 -25 8 -33 3 -38 -29 -26 -24 10 -25 8 -30 -37 -3 -26 -9
-65 -15 -86 -10 -38 -9 -41 24 -73 37 -35 74 -44 74 -17 0 8 4 12 10 9 5 -3
15 5 21 18 9 20 7 32 -15 71 -14 26 -26 56 -26 68 l0 22 20 -22 c11 -12 20
-23 20 -26 0 -2 14 -18 30 -36 17 -18 30 -38 30 -45 0 -8 10 -22 23 -32 42
-34 49 -49 36 -71 -17 -26 -5 -52 24 -52 13 0 35 -11 49 -25 l25 -24 38 19
c22 11 47 20 57 20 38 0 165 58 202 92 11 10 27 16 36 13 21 -7 53 29 73 82 9
24 35 61 58 84 34 34 45 39 68 34 30 -6 43 8 45 50 1 14 12 22 39 28 30 7 37
13 31 26 -18 44 -16 60 10 72 14 7 26 18 26 26 0 8 12 13 29 13 34 0 48 15 31
35 -12 14 -9 17 39 43 20 10 28 10 47 -3 13 -8 25 -15 28 -15 13 0 36 34 36
53 -1 20 -2 20 -11 5 -12 -21 -49 -24 -67 -6 -14 14 -16 57 -2 78 6 9 28 15
60 17 37 1 56 7 65 20 12 16 11 20 -7 34 -29 22 -20 55 14 51 23 -2 25 1 24
35 l-1 38 55 7 c30 4 73 11 95 16 46 10 70 1 78 -27z m-1715 14 c5 -4 8 -115
4 -115 -2 0 -16 7 -32 16 -15 10 -35 14 -45 11 -15 -6 -15 -9 4 -33 20 -25 28
-54 15 -54 -21 0 -45 26 -55 61 -11 34 -10 42 2 49 11 7 11 12 1 22 -6 6 -12
9 -12 4 0 -4 -12 2 -26 13 -15 12 -33 21 -40 21 -7 0 -15 4 -18 9 -5 8 193 4
202 -4z m-1929 -7 c28 -6 51 -15 51 -19 0 -3 26 -19 58 -34 45 -21 62 -25 82
-18 41 15 83 -14 93 -65 6 -32 17 -48 47 -69 59 -42 66 -62 40 -106 -15 -25
-20 -47 -17 -65 4 -20 -1 -34 -20 -54 l-26 -28 50 -47 c77 -74 112 -134 84
-145 -12 -4 -18 -155 -7 -185 11 -34 -11 -29 -88 17 -94 58 -123 50 -92 -24
16 -38 51 -168 60 -224 3 -19 15 -45 25 -59 16 -19 18 -30 10 -49 -5 -14 -9
-42 -9 -62 0 -20 -6 -49 -14 -63 -7 -14 -11 -40 -8 -57 6 -41 -6 -122 -19
-122 -5 0 -9 16 -9 36 0 20 -14 65 -30 100 l-31 63 16 55 c9 30 15 77 13 103
-3 43 -5 48 -28 49 -35 1 -70 13 -70 25 0 5 6 25 14 44 9 21 11 37 5 40 -5 4
-16 19 -24 36 -13 25 -14 33 -2 57 20 39 26 81 19 125 -6 34 -12 41 -47 52
-48 17 -110 82 -119 127 -5 26 -1 40 24 75 l31 43 -23 9 c-13 5 -35 12 -50 15
-15 4 -35 17 -44 30 -18 29 -12 46 42 113 19 23 34 51 34 62 0 12 -16 38 -35
59 -36 40 -74 114 -75 144 0 14 12 25 32 27 3 1 29 -4 57 -11z m6885 -28 c21
-22 44 -40 50 -40 6 -1 21 -9 33 -19 19 -16 22 -26 18 -66 -11 -104 -103 -155
-176 -96 -19 15 -24 30 -27 85 l-4 67 -40 16 c-21 8 -37 21 -35 27 4 11 18 11
74 0 25 -5 33 -2 42 14 6 11 8 28 5 36 -11 30 20 17 60 -24z m-572 -80 c64
-53 76 -59 83 -35 3 8 7 22 10 30 4 13 9 13 39 -2 55 -26 53 -45 -9 -87 -18
-13 -17 -17 37 -74 33 -36 62 -79 70 -104 11 -31 23 -47 46 -58 18 -9 39 -26
48 -38 15 -22 15 -25 -6 -47 -18 -19 -35 -25 -84 -27 -66 -3 -69 -7 -51 -70 7
-27 6 -27 -25 -18 -18 5 -43 21 -55 35 -16 16 -35 25 -54 25 -16 0 -33 5 -36
10 -4 6 -11 7 -17 4 -16 -10 -91 -12 -115 -3 -26 9 -39 -5 -35 -37 3 -18 -1
-21 -23 -17 -32 7 -37 15 -29 47 4 18 11 23 31 21 14 -1 27 4 30 11 6 16 88
17 114 1 9 -6 24 -7 33 -4 14 6 16 15 11 51 -6 35 -4 44 10 50 14 5 16 16 12
62 -4 46 -10 62 -35 87 -26 26 -32 28 -37 14 -4 -9 2 -25 14 -38 23 -25 27
-54 9 -65 -6 -4 -19 4 -30 19 -11 15 -27 27 -35 27 -21 0 -70 55 -84 95 -7 17
-21 36 -32 41 -37 16 -33 34 5 23 18 -5 39 -9 45 -9 18 0 16 59 -2 90 -8 14
-14 27 -15 30 0 3 23 6 51 7 49 2 55 -1 111 -47z m-3982 -19 c0 -20 -8 -35
-26 -49 -34 -24 -28 -54 21 -107 19 -21 42 -58 51 -82 9 -24 20 -43 25 -43 5
0 6 -6 3 -14 -6 -16 -29 -11 -56 12 -13 11 -28 13 -55 8 -49 -10 -131 -11
-140 -3 -3 4 -14 7 -23 7 -20 0 -54 56 -46 77 5 11 15 14 41 9 27 -5 35 -4 35
8 0 25 -20 69 -38 82 -25 18 -12 24 54 28 59 3 59 3 59 34 0 36 27 61 68 62
23 0 27 -4 27 -29z m-3323 -10 c3 -11 11 -22 18 -25 7 -2 16 -24 20 -48 4 -24
11 -48 16 -54 13 -16 -1 -134 -16 -134 -18 0 -65 39 -65 55 0 7 -13 24 -29 37
-20 16 -30 36 -35 65 -5 38 -4 42 16 45 13 2 23 10 23 18 1 51 41 82 52 41z
m2580 -97 c29 -8 34 -24 20 -72 -9 -29 -24 -48 -50 -66 -43 -29 -53 -31 -60
-13 -3 6 -6 -5 -6 -26 -1 -24 -5 -36 -12 -32 -6 4 -16 -1 -24 -11 -16 -22 -30
-13 -21 13 4 10 7 20 7 23 0 3 9 8 20 12 26 10 27 68 1 68 -23 0 -42 -19 -42
-42 0 -15 -5 -17 -25 -12 -15 4 -25 2 -25 -5 0 -6 -4 -11 -10 -11 -13 0 -40
54 -40 79 0 22 57 73 92 82 31 8 68 -10 68 -33 0 -28 16 -21 40 17 22 36 29
39 67 29z m5816 -62 c31 -29 34 -44 12 -62 -27 -23 -18 -62 27 -107 l42 -42
-25 -51 c-19 -40 -28 -49 -44 -45 -11 3 -34 5 -50 5 -22 0 -33 6 -40 23 -8 16
-20 23 -50 25 -40 3 -105 43 -105 63 0 6 9 13 19 16 11 3 21 15 23 27 2 17 9
20 31 18 36 -4 117 42 117 67 0 10 -11 23 -25 29 -34 16 -42 40 -19 57 24 18
51 10 87 -23z m-5673 -62 c6 -12 8 -30 5 -40 -4 -14 -2 -20 8 -20 8 0 21 -8
31 -18 15 -18 15 -21 -11 -49 -21 -22 -38 -30 -68 -32 -22 -2 -48 -7 -57 -12
-29 -16 -39 -10 -34 19 2 15 5 30 5 34 1 4 12 19 25 33 15 16 22 33 19 46 -7
24 22 59 48 59 10 0 23 -9 29 -20z m4303 -20 c8 -11 17 -17 20 -13 4 3 7 -13
7 -37 0 -42 0 -43 -19 -26 -24 22 -41 13 -41 -20 0 -13 -9 -33 -19 -43 -19
-19 -19 -18 -50 10 -36 33 -39 49 -11 74 13 12 18 25 14 38 -8 24 10 37 53 37
21 0 37 -7 46 -20z m2694 -12 c7 -9 7 -38 0 -85 -9 -70 -11 -73 -36 -73 -15 0
-32 -5 -37 -10 -14 -14 -44 -2 -44 17 0 8 5 24 12 36 6 12 10 38 10 59 -2 34
1 38 22 38 13 0 29 7 36 15 15 18 24 19 37 3z m-9376 -48 l30 -22 43 23 c37
19 50 21 87 13 97 -20 120 -140 34 -181 -46 -22 -47 -55 -4 -92 17 -14 49 -42
72 -62 l41 -36 -18 -46 c-18 -49 -43 -70 -94 -81 -28 -7 -32 -11 -32 -41 0
-34 36 -75 66 -75 8 0 14 -11 14 -25 0 -14 10 -39 22 -55 l22 -30 -29 -30
c-16 -16 -37 -30 -47 -30 -27 0 -97 -38 -142 -76 -24 -21 -50 -34 -67 -34 -15
0 -34 -3 -43 -6 -18 -7 -21 -39 -5 -50 17 -10 68 -127 75 -172 3 -22 2 -48 -3
-57 -9 -15 -14 -11 -34 26 -31 55 -54 65 -45 18 4 -19 7 -46 7 -60 0 -19 6
-29 22 -33 12 -3 26 -1 31 4 6 6 18 -5 33 -31 21 -38 22 -43 8 -70 -18 -34
-20 -34 -68 -14 -47 19 -45 20 -49 -12 -3 -26 -6 -28 -45 -25 -39 3 -44 1 -53
-25 -30 -82 -49 -92 -80 -40 -26 42 -25 51 5 81 28 28 30 43 11 69 -13 17 -16
17 -52 -2 -28 -15 -41 -18 -51 -9 -19 16 -16 46 7 60 26 17 25 25 -4 32 -35 9
-86 63 -86 92 0 13 11 34 25 46 14 12 25 31 25 43 0 30 36 60 103 86 53 20 59
21 75 5 22 -20 52 -21 52 -2 0 7 -8 24 -19 37 -10 13 -21 34 -25 46 -4 11 -18
28 -31 37 -30 20 -41 72 -26 129 6 27 7 63 2 95 -7 44 -15 58 -47 86 -22 19
-49 51 -59 72 -11 22 -33 56 -49 78 -22 28 -31 52 -33 90 -4 44 -1 55 22 79
32 33 48 33 100 2 22 -14 51 -25 64 -25 23 0 23 1 7 19 -17 19 -17 20 3 30 29
16 54 14 47 -4 -3 -8 -2 -15 3 -15 10 0 42 73 46 105 2 11 11 37 20 59 15 36
18 38 51 33 19 -3 48 -16 65 -27z m6563 -122 c9 -12 16 -35 16 -50 0 -33 14
-42 58 -40 27 2 35 -2 39 -18 3 -11 14 -20 24 -20 12 0 23 -10 29 -25 7 -18
17 -25 36 -25 19 0 25 4 20 15 -8 22 0 18 28 -12 31 -33 20 -53 -29 -53 -24 0
-39 7 -53 25 -11 13 -31 29 -46 35 -14 5 -26 16 -26 24 0 23 -60 51 -81 38
-27 -17 -60 25 -58 74 4 61 16 71 43 32z m-4134 -19 c0 -11 -18 -39 -40 -63
-40 -44 -52 -76 -26 -76 18 0 30 -30 17 -43 -10 -10 -83 -20 -136 -19 -79 2
-163 9 -173 16 -22 13 -13 35 21 51 57 28 94 51 126 77 17 15 47 32 68 39 21
6 41 16 44 22 7 10 79 26 92 20 4 -2 7 -13 7 -24z m5439 -55 c1 -12 8 -27 17
-35 10 -8 14 -22 11 -38 -3 -15 1 -33 10 -43 11 -12 12 -21 4 -35 -6 -10 -11
-13 -11 -7 0 12 -70 18 -70 6 0 -5 7 -17 15 -28 20 -27 19 -32 -10 -27 -37 8
-45 24 -50 99 -5 78 0 104 21 104 16 0 18 12 4 26 -6 6 -8 18 -4 27 5 15 9 14
34 -6 16 -12 29 -32 29 -43z m1921 21 c7 -8 9 -26 5 -43 -4 -22 -2 -31 10 -36
9 -3 20 -4 25 -1 11 7 30 -51 30 -92 0 -27 -5 -35 -26 -43 -22 -9 -25 -14 -19
-40 6 -27 4 -30 -19 -30 -23 0 -26 -3 -20 -25 3 -14 1 -39 -6 -56 -17 -41 -5
-48 29 -15 24 23 29 25 35 11 8 -22 7 -47 -2 -63 -7 -10 -15 -10 -36 -3 -32
13 -64 -3 -72 -36 -4 -13 -21 -36 -39 -52 -22 -19 -39 -48 -51 -84 l-17 -56
-39 20 c-21 11 -43 30 -47 42 -18 47 -71 72 -71 33 0 -17 -55 -40 -70 -31 -18
11 -50 93 -50 126 0 40 30 39 66 -3 15 -18 37 -34 50 -35 29 -2 31 12 4 27
-20 11 -28 40 -11 40 13 0 21 42 11 55 -6 7 -11 24 -12 40 -2 15 -8 30 -15 32
-21 8 -16 60 6 66 21 5 54 64 44 80 -3 5 0 8 8 5 8 -3 16 -16 19 -29 3 -13 14
-37 24 -52 17 -25 24 -28 53 -22 20 4 33 2 33 -5 0 -12 34 -13 58 -1 9 5 30
14 45 20 20 8 27 16 23 27 -12 31 -19 97 -10 92 20 -12 54 11 54 37 0 24 -2
26 -37 19 -42 -7 -72 -37 -73 -71 0 -27 -9 -29 -36 -8 -10 8 -27 15 -37 15
-15 0 -17 -5 -11 -35 5 -28 3 -35 -10 -35 -11 0 -16 9 -16 28 0 15 -4 33 -9
41 -15 23 -1 41 31 41 27 0 29 2 23 33 -5 24 -2 39 9 50 14 14 22 14 62 2 43
-13 45 -12 60 11 19 28 27 30 44 9z m-1700 -69 c0 -13 5 -37 11 -55 9 -24 16
-31 32 -29 16 2 24 -5 31 -25 12 -34 -1 -61 -33 -65 -29 -5 -48 12 -56 50 -7
29 -9 30 -46 24 -36 -6 -39 -4 -39 16 1 41 49 102 83 105 12 1 17 -5 17 -21z
m-704 -17 c3 -5 -6 -24 -20 -42 -23 -30 -25 -41 -23 -114 1 -54 -2 -86 -10
-94 -19 -19 -27 -3 -29 59 -2 72 -2 72 -14 72 -21 0 -50 36 -50 61 0 32 14 44
57 54 18 3 35 10 38 15 6 10 43 2 51 -11z m-5369 -45 c25 -5 29 -10 26 -29 -5
-26 28 -55 62 -55 12 0 43 -22 71 -50 53 -54 71 -59 115 -33 49 29 64 11 64
-78 l-1 -73 -49 -13 c-95 -25 -185 8 -185 68 0 52 -17 79 -49 79 -16 0 -31 -6
-35 -15 -7 -19 -86 -21 -86 -2 0 20 18 42 34 42 9 0 16 3 16 8 0 4 0 12 0 17
0 6 -6 10 -12 8 -16 -3 -68 48 -68 67 0 8 5 26 12 40 12 26 30 30 85 19z
m5927 -166 c7 -7 15 -21 19 -30 3 -10 13 -18 22 -18 18 0 64 -67 71 -103 l4
-26 -97 3 c-102 3 -145 17 -200 68 -23 21 -48 78 -34 78 12 0 61 -48 61 -60 0
-5 4 -10 10 -10 13 0 70 57 70 71 0 14 30 38 48 39 7 0 19 -6 26 -12z m-835
-135 c8 -16 17 -36 22 -45 23 -45 -3 -65 -69 -53 -41 7 -133 77 -119 91 7 8
107 32 138 33 9 1 21 -11 28 -26z m1966 -23 c6 -4 31 -11 58 -14 37 -6 47 -11
47 -26 0 -11 -9 -24 -20 -30 -12 -6 -20 -21 -20 -35 0 -23 -4 -25 -43 -25 -52
0 -67 13 -68 60 0 28 -2 31 -9 15 -7 -15 -9 -9 -9 26 -1 45 0 46 27 41 15 -2
32 -8 37 -12z m727 -73 c-1 -8 12 -27 29 -41 24 -20 38 -26 59 -21 55 12 121
-39 146 -112 10 -29 10 -33 -6 -33 -10 0 -21 -8 -24 -17 -3 -11 -4 -7 -3 7 2
23 -2 25 -43 28 -25 2 -52 9 -60 16 -28 25 -79 46 -85 36 -12 -19 -25 -10 -45
30 -12 23 -27 43 -35 47 -10 3 -15 19 -15 44 0 32 4 41 23 48 26 11 63 -9 59
-32z m-1992 -19 c17 -26 22 -68 8 -68 -5 0 -13 -11 -18 -25 -12 -33 -28 -32
-43 3 -7 15 -20 28 -29 28 -25 2 -23 -1 22 -55 38 -45 40 -51 40 -114 0 -64
-1 -67 -30 -82 -43 -22 -101 -19 -140 8 -24 16 -38 37 -50 77 -19 58 -18 70 6
70 8 0 14 4 14 9 0 4 14 25 30 46 17 21 30 46 30 55 0 20 19 30 56 30 13 0 32
9 41 20 23 26 45 25 63 -2z m1240 -179 c13 -17 28 -28 36 -25 7 3 16 1 20 -5
3 -5 14 -7 24 -4 13 4 20 0 25 -15 4 -12 14 -19 23 -18 23 4 30 -73 8 -92 -21
-16 -20 -27 4 -57 26 -34 25 -45 -3 -38 -20 5 -25 1 -33 -27 -9 -28 -7 -38 13
-67 18 -27 24 -30 29 -17 3 9 11 16 16 16 6 0 6 -6 -1 -14 -10 -11 -10 -20 -1
-36 15 -29 9 -33 -53 -35 -29 -1 -58 -5 -65 -9 -7 -4 -12 -27 -12 -50 0 -46
-19 -72 -45 -62 -8 3 -15 1 -15 -4 0 -6 -6 -10 -14 -10 -19 0 -25 -20 -15 -47
10 -26 29 -31 29 -7 0 17 25 46 33 38 3 -3 2 -18 -3 -33 -4 -16 -6 -39 -3 -53
3 -15 -2 -29 -11 -37 -9 -8 -16 -19 -16 -26 0 -7 -7 -15 -15 -19 -17 -6 -20
-42 -5 -51 6 -3 10 -17 10 -31 0 -17 -5 -24 -20 -24 -15 0 -20 7 -20 26 0 33
-35 91 -59 99 -9 3 -27 14 -39 25 -20 19 -20 22 -5 65 13 39 18 45 44 45 16 0
29 4 29 9 0 5 -10 7 -22 3 -20 -5 -21 -3 -14 36 4 30 2 43 -8 49 -8 4 -15 15
-17 23 -5 24 30 118 46 124 16 6 15 87 0 153 -5 24 -4 31 6 29 33 -6 58 -18
63 -31 3 -8 15 -15 26 -15 29 0 22 34 -8 38 -26 4 -26 5 -10 48 9 26 9 45 -2
87 -7 30 -10 60 -6 66 12 19 34 12 56 -20z m-7581 -82 c33 -16 60 -89 42 -111
-21 -25 -39 -19 -57 19 -18 38 -57 56 -77 36 -16 -16 3 -44 34 -51 26 -6 37
-36 21 -52 -16 -16 -60 34 -67 76 -4 20 -11 39 -16 42 -18 11 -8 33 19 42 38
14 73 14 101 -1z m1073 -444 c8 -19 74 -40 97 -31 14 5 44 6 68 2 33 -5 48 -2
61 9 16 15 21 15 46 2 16 -8 38 -15 51 -15 16 0 24 -7 27 -25 6 -29 7 -28 -26
-15 -23 8 -28 6 -41 -19 -15 -29 -63 -50 -85 -36 -6 4 -26 -7 -45 -23 -18 -17
-43 -33 -54 -37 -11 -3 -22 -18 -26 -35 -3 -15 -13 -31 -21 -34 -13 -5 -14 2
-8 39 l6 45 -39 0 c-22 0 -42 -3 -46 -6 -8 -8 22 -67 39 -77 8 -4 14 -15 14
-23 0 -11 -6 -14 -22 -9 -13 4 -27 11 -32 16 -5 5 -14 1 -21 -8 -14 -19 -47
-5 -71 32 -14 21 -14 26 1 54 8 17 21 31 29 31 7 0 21 9 32 21 16 17 16 22 4
29 -8 6 -20 10 -27 10 -16 0 -43 40 -43 64 0 10 8 25 18 32 18 14 108 19 114
7z m6158 -73 c13 -17 29 -29 36 -28 18 4 74 -71 74 -98 0 -23 -12 -29 -46 -25
-7 1 -9 -9 -6 -25 3 -18 -1 -29 -18 -41 -19 -13 -21 -21 -16 -58 5 -32 3 -44
-8 -48 -34 -13 -45 42 -32 161 6 47 14 76 22 79 21 8 17 43 -4 43 -19 0 -65
54 -55 64 13 13 31 5 53 -24z m-5841 -81 c12 -12 20 -27 17 -35 -6 -16 18 -77
27 -68 3 4 18 4 32 0 31 -8 34 -45 5 -71 -25 -23 -25 -29 0 -63 l20 -27 -28
-56 -27 -56 -31 31 c-24 25 -29 36 -23 56 4 14 7 46 8 71 1 40 -4 51 -34 83
-19 21 -35 41 -35 46 0 5 -8 7 -17 5 -10 -3 -3 2 15 10 32 15 33 18 27 55 -8
47 7 53 44 19z m-119 -134 c7 -8 19 -15 28 -15 13 0 13 -2 -1 -18 -23 -25 -22
-72 1 -73 11 -1 9 -4 -8 -9 -40 -13 -60 -11 -60 5 0 8 -9 19 -20 25 -17 9 -20
7 -26 -14 -10 -41 -27 -49 -68 -32 -48 20 -65 61 -37 89 17 18 23 18 49 8 34
-14 68 0 78 31 7 22 47 24 64 3z m5725 -221 c8 -18 18 -61 21 -96 4 -34 14
-79 24 -99 11 -25 14 -42 8 -53 -16 -28 -34 -18 -49 26 -7 24 -33 64 -56 90
-23 26 -47 65 -53 85 -6 21 -17 47 -25 57 -8 11 -15 28 -15 39 0 17 5 18 35
13 22 -5 35 -3 35 4 0 19 59 -32 75 -66z m-5937 23 c33 0 52 -5 52 -12 0 -7 9
-20 20 -30 16 -15 39 -19 108 -20 l87 -1 -2 -52 c-3 -56 -31 -123 -63 -145
-21 -14 -50 -15 -84 -1 -15 6 -17 3 -12 -12 10 -33 -5 -43 -52 -34 -36 6 -42
5 -42 -10 0 -9 11 -23 25 -30 14 -7 32 -24 40 -37 12 -18 21 -22 40 -17 19 5
25 2 25 -11 0 -23 38 -75 55 -75 18 0 21 -7 30 -58 6 -37 5 -41 -11 -35 -14 5
-16 3 -11 -11 11 -29 -36 -70 -85 -75 -17 -2 -7 -21 11 -21 11 0 23 -5 27 -11
3 -6 15 -8 27 -5 15 4 17 2 8 -7 -6 -6 -11 -19 -11 -28 0 -23 57 -109 73 -110
7 -1 19 -2 27 -3 24 -2 60 -30 60 -46 0 -13 -2 -13 -10 0 -7 11 -11 9 -19 -13
-12 -30 -14 -31 -43 -16 -17 9 -23 8 -30 -5 -11 -20 -57 -21 -83 -2 -17 12
-18 17 -5 55 13 39 12 42 -13 65 -15 14 -27 29 -27 34 0 11 -51 35 -58 27 -3
-3 0 -11 6 -17 15 -15 15 -37 0 -71 -16 -34 -28 -35 -28 -2 0 44 -21 74 -54
79 -147 22 -152 12 -37 -71 2 -1 -1 -9 -7 -16 -7 -8 -9 -16 -7 -19 3 -3 -6 -3
-20 0 -14 2 -28 8 -31 13 -7 12 -44 12 -44 0 0 -4 10 -21 21 -36 12 -15 23
-37 24 -50 2 -12 8 -31 13 -42 6 -11 9 -29 6 -40 -4 -13 1 -26 13 -34 16 -12
53 -76 53 -92 0 -9 -40 -15 -46 -6 -9 15 -34 10 -61 -11 -34 -27 -58 -25 -100
7 -30 23 -38 25 -55 14 -18 -11 -24 -9 -49 14 -26 26 -27 29 -13 50 8 13 28
25 43 28 17 4 31 14 34 26 3 15 13 21 32 21 26 0 27 2 20 41 -4 22 -9 64 -11
92 -7 84 -9 92 -32 124 -28 39 -27 43 2 43 18 0 25 7 30 30 l6 30 67 -2 c39
-1 78 4 91 11 22 12 23 13 7 38 -16 23 -16 27 -1 41 13 13 23 14 56 6 28 -8
40 -8 43 0 4 11 -28 45 -45 47 -4 1 -13 2 -18 3 -11 1 -30 26 -30 40 0 4 28 6
62 5 53 -3 63 -1 66 13 4 20 -73 64 -83 48 -9 -14 -34 -12 -49 3 -7 6 -15 27
-19 45 -8 38 -43 76 -105 116 -43 27 -43 27 -36 74 3 26 11 55 16 65 12 24 49
22 55 -3 6 -22 18 -26 28 -10 3 6 22 10 41 10 28 0 33 3 31 20 -2 11 -13 30
-25 43 -31 33 -29 51 6 42 15 -5 51 -8 80 -8z m-340 -135 c2 -11 -4 -31 -12
-44 -9 -15 -13 -38 -11 -65 4 -37 1 -45 -26 -67 -25 -22 -33 -24 -54 -14 -26
12 -33 36 -15 54 12 12 2 47 -11 39 -4 -3 -2 11 5 32 8 23 20 39 32 41 10 2
30 15 42 28 27 29 46 27 50 -4z m-550 -147 c11 -13 22 -22 24 -19 3 2 11 -2
18 -11 21 -25 90 -17 90 11 0 8 5 14 10 14 6 0 10 -4 10 -10 0 -5 5 -10 12
-10 6 0 20 -7 29 -16 12 -11 35 -16 63 -16 25 1 48 -3 51 -8 4 -6 -16 -10 -49
-10 -34 0 -60 -5 -69 -15 -12 -11 -21 -12 -44 -3 -38 14 -63 5 -63 -22 0 -12
-7 -43 -16 -70 -9 -26 -14 -59 -11 -72 4 -21 5 -21 16 10 14 35 31 43 31 13 0
-13 18 -30 55 -51 30 -17 55 -36 55 -42 0 -5 -6 -8 -14 -5 -14 5 -15 -6 -7
-70 2 -21 32 -15 38 7 3 11 8 20 10 20 11 0 103 -72 103 -80 0 -13 -35 -30
-59 -30 -11 0 -28 -11 -36 -24 -11 -16 -22 -22 -35 -19 -11 3 -20 9 -20 14 0
5 -15 9 -34 9 -37 0 -47 13 -39 53 4 20 1 27 -10 27 -37 0 -127 108 -98 118 9
3 9 7 0 18 -6 8 -8 14 -4 14 3 0 -4 16 -16 37 -19 30 -23 50 -22 117 0 45 -4
89 -9 99 -10 20 -4 47 11 47 5 0 18 -11 29 -25z m7822 -44 c0 -9 6 -25 13 -35
11 -15 17 -16 40 -5 21 10 30 9 43 -2 17 -14 20 -15 62 -17 12 -1 22 -7 22
-13 0 -5 -4 -7 -10 -4 -11 7 -70 -22 -70 -34 0 -5 -7 -12 -15 -15 -11 -4 -19
3 -25 20 -12 32 -34 27 -38 -9 -2 -18 -10 -27 -25 -29 -18 -2 -14 -7 25 -30
26 -16 53 -28 61 -28 8 0 38 -22 67 -50 29 -27 59 -50 67 -50 8 0 13 -6 10
-12 -2 -7 -10 -12 -16 -10 -7 1 -19 -15 -28 -35 -15 -37 -15 -38 16 -64 36
-30 39 -44 11 -59 -27 -15 -36 -7 -44 36 -6 29 -14 38 -44 51 -20 8 -39 19
-42 23 -40 62 -158 164 -203 175 -22 6 -57 -19 -49 -34 2 -3 -1 -7 -6 -9 -6
-2 -16 13 -22 34 -10 29 -10 38 0 44 7 4 9 13 6 19 -4 6 0 11 8 11 9 0 16 5
16 11 0 14 52 2 62 -14 13 -22 16 -1 6 52 -5 29 -7 56 -4 59 4 3 16 -4 29 -16
34 -32 47 -28 47 16 0 21 3 42 6 45 10 10 24 -2 24 -22z m-519 -83 c47 -44 79
-89 79 -109 0 -11 -39 -48 -52 -49 -5 0 -8 6 -8 14 0 7 -12 25 -26 39 -20 20
-32 25 -54 21 -27 -6 -56 16 -32 24 6 2 14 20 17 40 13 77 15 77 76 20z m899
-50 c0 -7 12 -29 26 -50 18 -26 25 -46 21 -64 -4 -22 0 -28 25 -36 44 -16 18
-39 -41 -36 -47 2 -74 23 -138 107 -29 36 -29 49 -2 53 22 3 32 16 43 51 5 16
8 17 36 2 16 -8 30 -21 30 -27z m-7848 -66 c14 -11 15 -19 6 -35 -8 -17 -7
-23 8 -34 11 -8 30 -23 44 -33 29 -22 23 -31 -37 -50 -39 -12 -45 -11 -63 5
-17 16 -20 30 -19 89 2 88 14 99 61 58z m-831 -281 c24 -19 24 -19 4 -41 -19
-21 -19 -23 -2 -35 9 -6 17 -19 17 -26 0 -20 38 -41 61 -34 10 4 19 10 19 14
0 5 14 14 30 21 17 7 34 18 38 24 4 7 23 24 43 39 27 20 47 27 82 27 53 0 59
-12 21 -43 -20 -15 -25 -27 -22 -49 5 -33 -15 -49 -35 -29 -18 18 -48 13 -106
-19 -65 -36 -81 -37 -148 -8 -39 18 -56 33 -73 64 -22 39 -22 41 -5 77 20 42
41 47 76 18z m1049 0 c15 -29 12 -41 -8 -41 -13 0 -24 -14 -35 -41 -16 -41
-17 -42 -41 -25 -32 20 -56 21 -56 1 0 -24 -14 -17 -33 16 -19 34 -10 59 22
59 9 0 23 6 29 12 10 10 66 30 104 37 4 0 12 -8 18 -18z m7313 -71 c3 -23 11
-47 17 -55 16 -20 66 -19 74 0 11 28 23 15 22 -24 -1 -62 49 -102 56 -43 3 24
7 27 37 25 37 -1 67 -25 56 -43 -4 -6 -16 -9 -27 -7 -13 4 -19 1 -17 -11 5
-52 -9 -65 -40 -38 -18 15 -153 27 -191 17 -17 -5 -26 -15 -28 -32 -3 -27 -41
-59 -43 -37 -2 23 3 43 13 49 5 3 11 38 13 78 2 39 9 78 15 86 7 8 10 20 7 27
-5 15 10 48 22 48 5 0 11 -18 14 -40z m-115 2 c14 -22 14 -23 -6 -29 -16 -4
-21 -11 -17 -27 27 -121 28 -151 2 -115 -7 9 -31 26 -53 37 -53 27 -60 46 -32
85 57 80 78 90 106 49z m-7473 -62 c3 -5 15 -10 26 -10 10 0 19 -4 19 -10 0
-5 5 -10 10 -10 6 0 10 6 10 13 0 7 12 14 26 15 21 2 25 -2 22 -21 -2 -18 -9
-22 -35 -21 -32 2 -43 -9 -23 -21 6 -3 18 -23 29 -45 l18 -38 -28 2 c-16 1
-31 -4 -33 -11 -3 -7 -15 -13 -27 -13 -12 0 -27 -7 -33 -15 -9 -12 -20 -9 -68
21 -45 28 -59 43 -67 71 -17 60 28 100 116 102 17 1 35 -3 38 -9z m778 -54 c8
9 37 -52 37 -78 0 -13 -12 -34 -25 -47 -14 -13 -25 -30 -25 -38 0 -12 -8 -14
-37 -9 -21 3 -45 6 -54 6 -52 0 -63 122 -12 135 19 4 24 11 20 25 -8 32 23 42
59 19 17 -10 34 -16 37 -13z m6411 -77 c11 -10 18 -21 15 -23 -11 -11 -55 -13
-67 -3 -41 33 -33 -60 8 -96 11 -9 20 -26 20 -37 0 -14 7 -20 21 -20 28 0 99
-78 99 -108 0 -37 36 -81 60 -75 19 5 20 2 15 -48 -6 -51 -4 -56 25 -87 17
-18 42 -40 56 -48 36 -24 32 -45 -8 -37 -20 4 -53 28 -92 68 -69 69 -89 80
-106 59 -21 -25 -54 -17 -67 16 -6 16 -23 34 -37 39 -63 25 -75 100 -27 178
32 52 40 93 19 93 -7 0 -26 7 -42 15 -16 9 -36 13 -44 10 -11 -4 -13 1 -8 19
4 16 0 30 -10 41 -15 15 -15 17 1 29 10 7 28 11 41 8 18 -3 26 1 33 19 4 13 6
30 3 37 -6 16 64 -21 92 -49z m-7763 -90 c5 -8 9 -37 9 -64 0 -44 4 -54 31
-78 21 -18 42 -27 65 -27 19 0 34 2 34 4 0 20 -17 37 -46 46 -43 14 -39 36 5
33 40 -1 74 -30 67 -56 -2 -11 0 -29 6 -42 15 -34 -26 -89 -61 -80 -24 6 -41
-7 -41 -33 0 -7 23 -22 50 -34 28 -11 50 -23 50 -27 0 -3 -14 -21 -30 -39 -25
-27 -33 -31 -50 -22 -11 6 -20 18 -20 27 0 9 -8 25 -17 35 -14 16 -15 23 -5
38 7 11 12 44 12 74 0 46 -3 56 -25 70 -14 9 -25 22 -25 29 0 8 -22 20 -50 27
-27 7 -50 18 -50 22 0 5 -5 6 -12 2 -8 -5 -9 0 -5 17 4 13 7 47 7 76 l0 51 46
-17 c25 -10 50 -24 55 -32z m8389 -13 c0 -25 -23 -81 -42 -103 -11 -12 -17
-26 -14 -31 9 -15 -4 -42 -20 -42 -7 0 -20 -13 -29 -29 -16 -31 -47 -47 -67
-35 -7 4 -27 18 -45 32 -28 21 -31 26 -21 47 6 13 22 26 36 30 14 3 37 15 50
26 14 10 33 19 43 19 13 0 19 7 19 24 0 21 6 25 33 28 27 2 31 7 29 26 -2 15
2 22 12 22 9 0 16 -6 16 -14z m-6685 -16 c3 -5 7 -27 10 -50 3 -34 0 -43 -20
-56 -16 -10 -34 -14 -53 -10 -25 6 -30 3 -45 -29 -18 -38 -27 -41 -60 -24 -29
16 -37 30 -27 49 4 8 6 27 3 42 -7 35 17 46 54 27 22 -12 27 -11 39 5 15 22
63 54 81 55 6 1 14 -3 18 -9z m-503 -37 c18 -9 39 -19 47 -23 20 -9 26 -30 8
-30 -7 0 -28 -7 -45 -16 -34 -16 -42 -41 -17 -50 8 -4 15 -12 15 -20 0 -7 10
-20 22 -28 20 -14 23 -13 44 9 39 43 54 31 74 -60 8 -33 20 -64 27 -68 19 -11
16 -27 -8 -53 -17 -18 -26 -21 -45 -14 -20 8 -26 5 -39 -20 -9 -17 -21 -30
-27 -30 -6 0 -19 -6 -27 -14 -14 -12 -24 -11 -78 15 -35 16 -63 33 -63 37 0
13 15 29 36 40 14 7 23 24 26 45 4 35 1 36 -44 28 -5 0 -17 -10 -27 -20 -21
-21 -15 -23 -81 28 -22 17 -23 22 -12 42 6 13 12 33 11 44 -2 66 4 105 17 105
7 0 16 9 19 20 4 12 11 17 18 13 23 -14 46 -9 56 14 13 28 45 30 93 6z m-394
-126 c6 -12 13 -39 17 -61 6 -35 5 -38 -12 -31 -39 16 -52 16 -81 1 -43 -22
-59 -20 -86 11 -33 38 -21 61 40 82 74 25 109 25 122 -2z m7799 -75 c25 -22
60 -42 73 -42 6 0 23 -11 38 -25 l27 -26 -25 -19 c-14 -11 -30 -20 -37 -20 -7
0 -16 -8 -21 -17 -9 -15 -15 -15 -48 -4 -56 18 -84 4 -100 -48 -12 -40 -11
-44 15 -74 16 -18 36 -47 45 -64 16 -32 36 -44 36 -23 0 6 9 2 20 -8 19 -17
20 -24 10 -67 -6 -26 -8 -56 -5 -66 9 -28 -4 -59 -25 -59 -27 0 -80 65 -80
100 0 15 5 30 11 32 23 8 -14 101 -57 146 -23 23 -44 42 -48 42 -12 0 -6 -78
7 -83 6 -3 -4 -6 -23 -6 -19 -1 -42 -5 -50 -11 -12 -8 -12 -12 0 -36 8 -15 27
-35 42 -43 16 -9 28 -19 28 -23 0 -5 7 -8 15 -8 18 0 19 -14 4 -42 -8 -14 -7
-28 1 -49 11 -25 10 -32 -5 -49 -30 -33 -57 -25 -89 26 l-29 45 23 24 c21 22
22 27 10 50 -12 22 -18 24 -47 19 -24 -5 -33 -3 -33 8 0 22 -43 52 -70 50 -50
-6 -106 90 -80 137 6 12 17 21 25 21 7 0 32 19 54 42 33 35 45 42 74 40 34 -2
64 18 54 35 -3 5 7 17 22 27 15 11 38 34 51 53 34 49 74 64 126 46 23 -8 50
-22 61 -31z m-8018 -18 c-19 -23 -3 -44 35 -44 38 0 40 -2 50 -42 6 -26 4 -28
-35 -34 -44 -7 -59 -25 -39 -49 10 -13 9 -19 -5 -35 -22 -24 -48 -26 -65 -5
-10 12 -10 18 -1 29 17 20 -13 66 -45 68 -13 0 -29 1 -36 2 -7 1 -15 -10 -18
-23 -5 -22 -7 -23 -22 -8 -26 26 -47 20 -56 -15 -11 -43 -55 -57 -77 -25 -19
27 -19 46 1 68 12 13 22 16 39 9 21 -8 24 -6 27 18 2 19 12 31 35 41 22 10 33
22 35 40 l4 26 19 -33 c20 -33 25 -36 84 -47 33 -7 33 -7 26 25 -9 39 19 78
42 59 10 -9 10 -15 2 -25z m-801 -140 c14 -10 21 -22 17 -31 -7 -20 60 -108
154 -200 62 -61 81 -73 117 -79 24 -3 49 -12 55 -20 6 -8 17 -14 24 -14 7 0
24 -9 38 -20 31 -25 37 -25 37 0 0 29 31 42 52 23 16 -15 18 -15 18 0 0 10 -7
17 -15 17 -8 0 -15 5 -15 11 0 7 -8 17 -17 24 -16 12 -16 14 0 39 22 33 37 33
37 2 0 -43 10 -57 31 -45 33 17 72 7 87 -23 15 -32 20 -33 66 -14 28 12 36 12
47 1 20 -19 39 -21 84 -6 47 16 60 26 60 49 0 9 7 17 15 17 11 0 15 -12 15
-47 0 -25 4 -50 8 -54 14 -14 8 -64 -8 -64 -8 0 -15 -7 -15 -15 0 -8 -9 -24
-19 -34 -11 -11 -21 -27 -23 -38 -3 -20 -101 -72 -185 -100 l-52 -16 -27 26
c-16 16 -38 27 -53 27 -27 0 -38 -21 -66 -127 -4 -13 -49 -67 -101 -120 -59
-60 -117 -133 -151 -188 -66 -108 -81 -125 -98 -119 -25 10 -24 44 3 75 25 31
25 31 7 65 l-18 33 37 53 c20 29 36 56 36 59 0 4 -30 10 -66 14 -80 8 -83 28
-10 65 28 14 51 30 53 36 2 6 -21 19 -52 28 -30 10 -55 22 -55 27 0 13 46 22
84 15 37 -7 81 20 95 58 7 18 9 16 20 -17 7 -20 17 -37 24 -37 6 0 22 -14 36
-31 l26 -30 48 20 c50 21 56 34 32 65 -9 12 -15 42 -15 73 0 47 2 53 20 53 20
0 38 25 26 37 -3 3 -17 1 -30 -5 -20 -9 -28 -7 -46 10 -16 15 -34 21 -61 20
-29 -1 -39 2 -39 13 0 29 -32 65 -57 65 -22 0 -25 4 -21 25 7 32 -27 71 -47
55 -19 -16 -27 3 -19 45 4 21 2 35 -4 35 -5 0 -12 9 -15 21 -5 18 -10 20 -50
14 -39 -6 -45 -5 -50 14 -3 12 -12 21 -21 21 -9 0 -16 8 -16 18 0 9 -9 23 -20
30 -26 16 -25 37 1 56 24 16 18 36 -11 36 -10 0 -22 5 -25 10 -10 16 58 12 83
-6z m1405 -108 c29 -24 29 -56 -1 -56 -8 0 -23 -7 -33 -16 -12 -11 -23 -13
-36 -7 -35 17 -48 10 -45 -25 2 -17 1 -32 -3 -32 -3 0 -25 10 -48 21 -42 21
-86 64 -87 85 -1 33 84 50 128 25 25 -13 52 -1 52 24 0 18 40 8 73 -19z m6055
-18 c23 -23 13 -38 -24 -38 -33 0 -36 -2 -29 -22 22 -69 13 -128 -20 -128 -8
0 -15 -7 -15 -15 0 -8 -9 -15 -20 -15 -16 0 -20 7 -20 35 0 20 -7 49 -15 66
-19 35 -13 49 21 49 19 0 24 5 24 26 0 19 4 25 15 20 10 -4 15 1 15 14 0 15 7
20 28 20 15 0 33 -5 40 -12z m572 -70 c0 -9 5 -20 10 -23 6 -3 10 -15 10 -25
0 -11 11 -27 25 -36 14 -9 25 -24 25 -34 0 -24 53 -80 77 -80 31 0 42 -14 45
-58 2 -23 8 -44 14 -46 7 -2 12 -31 13 -67 1 -34 6 -68 12 -75 16 -19 1 -35
-27 -28 -18 5 -29 0 -44 -17 -19 -24 -19 -24 -20 -3 0 30 -16 40 -82 54 -40 9
-66 22 -85 42 l-28 30 22 16 c12 9 33 24 45 33 l23 17 -29 58 c-16 33 -33 82
-37 109 -4 28 -11 71 -14 96 -5 29 -3 54 5 68 11 22 12 22 25 4 8 -10 15 -26
15 -35z m-5688 -140 c-2 -18 4 -30 16 -37 10 -5 27 -28 37 -51 l18 -41 -33
-34 c-19 -19 -39 -35 -44 -35 -25 1 -74 66 -79 105 -3 22 -8 55 -12 72 -6 28
-4 34 16 42 13 6 38 9 54 8 26 -2 30 -5 27 -29z m5362 -10 c-4 -13 -1 -16 9
-12 19 7 30 -24 32 -97 2 -31 8 -65 14 -77 25 -47 7 -68 -29 -32 -11 11 -30
20 -42 20 -16 0 -28 11 -40 36 -24 46 -23 54 7 54 30 0 30 0 3 46 l-22 37 27
19 c15 11 27 27 27 36 0 15 2 15 10 2 5 -8 7 -23 4 -32z m-223 -40 c22 -13 42
-33 45 -45 3 -12 20 -28 36 -36 31 -15 31 -15 9 -28 -11 -8 -21 -19 -21 -26 0
-18 -8 -16 -37 7 -14 11 -39 20 -55 20 -16 0 -38 5 -49 10 -23 13 -25 45 -4
54 9 3 15 18 15 36 0 36 9 37 61 8z m-456 -102 c57 -1 80 -21 81 -71 0 -16 2
-36 5 -44 4 -14 -110 -103 -122 -96 -3 2 -18 -2 -33 -10 -26 -14 -29 -13 -59
15 -28 26 -30 31 -19 54 15 35 8 50 -32 64 -23 8 -33 18 -32 29 2 9 7 18 12
19 5 1 21 5 35 8 14 3 36 15 49 26 15 13 30 18 44 14 11 -4 43 -7 71 -8z
m1549 -25 c39 -26 67 -71 60 -96 -4 -11 -15 -32 -25 -47 -28 -39 -8 -78 60
-113 48 -24 148 -126 157 -159 9 -39 -4 -45 -28 -13 -32 43 -171 177 -185 177
-7 0 -15 -11 -19 -25 -7 -27 -28 -33 -41 -11 -10 16 -66 46 -88 46 -16 0 -16
0 -21 80 -6 90 2 115 48 149 23 17 44 31 47 31 4 0 19 -9 35 -19z m-1034 -91
c11 -11 20 -23 20 -27 0 -12 72 -73 86 -73 19 0 27 -19 15 -33 -11 -15 -3 -60
9 -52 5 3 11 1 14 -4 3 -5 -1 -11 -9 -15 -8 -3 -15 -2 -15 3 0 5 -13 11 -30
14 -23 5 -35 1 -54 -18 -17 -17 -36 -25 -60 -25 -19 0 -38 -4 -41 -10 -9 -15
-98 -12 -140 5 -26 11 -40 13 -49 6 -9 -8 -19 -5 -34 10 -12 11 -22 24 -22 30
0 15 30 23 43 10 6 -6 19 -11 29 -11 14 0 18 8 18 33 0 18 7 55 16 81 12 36
19 44 29 36 14 -11 45 -3 45 12 0 10 76 47 98 48 6 0 21 -9 32 -20z m491 -120
c49 -56 69 -63 69 -24 0 24 3 26 30 21 17 -4 30 -2 30 3 0 6 4 10 8 10 5 0 8
-10 7 -22 -2 -26 14 -68 26 -68 4 0 10 -8 13 -17 3 -10 17 -30 31 -45 21 -23
29 -26 51 -18 14 6 26 10 28 10 2 0 5 -29 7 -86 4 -82 -56 -93 -82 -17 -20 60
-79 27 -79 -44 0 -37 -19 -54 -27 -24 -7 26 -19 26 -61 1 -18 -11 -37 -20 -42
-20 -23 0 -6 49 35 104 46 61 53 76 35 76 -16 0 -69 63 -70 82 0 27 -11 48
-26 48 -16 0 -44 39 -44 62 0 29 14 21 61 -32z m533 -198 c13 -20 31 -43 40
-51 20 -17 21 -31 2 -31 -8 0 -19 -14 -25 -30 -12 -36 -37 -48 -54 -27 -7 8
-24 17 -38 21 -15 3 -36 14 -48 23 -19 16 -21 22 -12 46 13 35 69 87 93 87 10
0 28 -17 42 -38z m-792 -464 c13 0 31 0 41 0 10 1 38 -7 62 -18 24 -11 48 -20
54 -20 6 0 27 -11 47 -25 20 -14 42 -25 48 -25 19 0 35 -21 29 -36 -13 -34
-40 -35 -116 -4 -83 33 -98 35 -114 19 -9 -9 -24 -6 -59 12 -48 24 -69 49 -40
49 27 0 28 19 2 44 -14 13 -26 31 -26 41 0 15 4 13 25 -9 13 -14 34 -27 47
-28z m-154 -89 c11 -7 32 -39 46 -71 23 -52 48 -73 58 -50 2 5 17 11 33 15 39
7 102 -40 91 -68 -6 -17 -7 -17 -26 0 -23 21 -29 18 -32 -18 -3 -31 -26 -45
-34 -19 -14 48 -31 67 -60 70 -20 2 -36 13 -49 33 -11 16 -27 28 -35 27 -29
-5 -80 50 -80 87 0 18 56 14 88 -6z m1055 -89 c14 -11 32 -17 41 -14 20 8 57
-23 55 -45 -2 -29 1 -38 22 -62 18 -20 20 -33 16 -78 -4 -34 -12 -58 -21 -63
-18 -10 -22 -38 -6 -38 13 0 50 -60 50 -80 0 -9 -14 0 -35 22 -19 19 -48 41
-64 47 -29 13 -51 47 -51 81 0 10 -4 22 -10 25 -15 9 -12 48 6 73 9 13 13 31
9 42 -6 18 -9 19 -33 6 -56 -29 -81 19 -40 74 26 36 28 36 61 10z m-404 -48
c5 -9 12 -34 16 -54 7 -36 41 -78 66 -82 32 -4 40 -18 38 -69 -2 -32 2 -52 9
-55 7 -2 12 -22 12 -45 0 -23 4 -59 9 -79 12 -53 10 -54 -56 -20 -19 10 -23 8
-28 -9 -16 -50 -38 4 -97 236 -12 49 -12 95 1 108 6 6 6 18 -1 33 -19 41 10
75 31 36z m-4409 -218 c-7 -31 -33 -63 -51 -64 -4 0 -10 -11 -13 -24 -6 -25
-31 -56 -45 -56 -8 0 -41 70 -41 88 0 6 13 20 29 32 16 11 31 30 33 43 2 17
11 23 36 25 17 2 32 9 32 15 0 7 7 4 14 -6 10 -12 11 -28 6 -53z m4215 56 c5
-8 11 -7 21 1 11 9 14 8 14 -4 0 -9 -5 -19 -10 -22 -6 -4 -8 -11 -4 -16 3 -5
9 -7 14 -4 13 8 18 -21 21 -105 4 -133 4 -133 -33 -126 -18 3 -64 21 -103 40
-38 18 -87 41 -108 51 -21 10 -55 37 -76 62 -36 40 -38 46 -28 73 12 30 37 41
37 16 0 -18 23 -36 54 -42 14 -2 37 -9 52 -14 19 -8 31 -7 41 2 8 7 28 11 44
10 21 -2 31 3 35 15 3 10 9 25 14 34 5 10 4 21 -3 28 -8 8 -8 11 0 11 7 0 15
-5 18 -10z m362 -327 c45 9 84 -3 94 -29 10 -27 27 -31 35 -9 4 8 11 15 17 15
33 0 124 -104 142 -162 4 -12 15 -36 23 -53 14 -25 41 -93 42 -102 1 -20 -136
73 -153 103 -4 8 -13 14 -20 14 -7 0 -31 18 -55 39 -42 39 -43 41 -36 87 l7
47 -37 -7 c-21 -4 -43 -3 -49 2 -7 6 -23 12 -37 14 -19 2 -26 10 -28 32 -3 26
-2 28 12 17 9 -8 28 -11 43 -8z m-3872 -654 c5 -5 17 -9 26 -9 15 0 17 -6 12
-37 -3 -21 -10 -46 -15 -56 -5 -9 -6 -32 -3 -51 6 -28 3 -36 -16 -50 -13 -9
-34 -16 -46 -16 -12 0 -27 -9 -33 -20 -6 -11 -15 -20 -21 -20 -14 0 -2 77 16
106 11 18 11 22 -6 32 -23 15 -61 96 -53 116 13 33 106 36 139 5z m3701 -364
c12 -37 12 -44 -8 -85 -26 -55 -56 -100 -68 -100 -15 0 -22 129 -10 181 12 47
14 50 42 47 25 -2 32 -10 44 -43z m399 -261 c3 -16 7 -56 11 -88 l7 -59 -25 6
c-25 7 -35 -4 -52 -57 -4 -11 -12 -16 -22 -12 -10 4 -27 -5 -45 -23 -16 -16
-29 -25 -29 -20 0 6 -5 7 -10 4 -6 -3 -13 1 -16 9 -3 9 -11 13 -16 10 -15 -9
-2 -58 26 -101 13 -21 34 -63 47 -93 13 -30 33 -69 46 -86 20 -27 31 -64 19
-64 -17 0 -56 22 -56 31 0 11 -88 124 -114 146 -8 7 -17 38 -21 70 -3 32 -10
68 -16 81 -21 51 -3 132 29 132 10 0 27 7 38 15 10 8 31 15 46 15 15 0 30 5
33 11 4 6 14 8 22 4 13 -4 15 2 11 40 -5 37 -3 43 8 34 7 -6 16 -19 19 -30 4
-10 13 -19 21 -19 8 0 12 5 9 11 -4 6 -4 26 0 46 7 41 24 33 30 -13z m-904 0
c10 -9 40 -27 66 -40 40 -19 49 -20 56 -8 11 20 70 15 64 -6 -3 -8 -6 -21 -8
-28 -5 -19 58 -52 101 -53 19 0 29 -3 23 -6 -7 -2 -13 -11 -13 -19 0 -8 -9
-14 -20 -14 -12 0 -32 -7 -45 -16 -54 -35 -192 -14 -258 40 -28 22 -34 90 -11
131 21 40 22 40 45 19z m719 -1169 c10 -12 15 -12 35 1 19 13 24 13 34 0 7 -8
18 -13 26 -10 18 7 26 -23 17 -66 -7 -29 -15 -38 -55 -54 -57 -24 -89 -13
-113 37 -14 30 -14 37 0 70 16 39 35 47 56 22z"/>
<path d="M8986 10105 c-9 -13 -16 -29 -16 -34 0 -21 85 -91 111 -91 15 0 32
-7 39 -15 15 -18 36 -19 46 -3 4 6 -3 19 -15 29 -18 15 -22 27 -19 60 3 38 0
44 -27 60 -46 27 -99 24 -119 -6z"/>
<path d="M3445 10383 c20 -49 24 -77 14 -89 -8 -10 -3 -17 24 -30 35 -17 47
-37 47 -83 0 -20 -2 -22 -15 -11 -18 15 -20 13 -29 -16 -7 -23 20 -55 32 -38
8 10 48 34 59 34 4 0 -3 -9 -15 -20 -23 -21 -28 -45 -14 -54 5 -3 25 -3 45 1
30 5 37 10 37 29 0 12 -4 26 -10 29 -5 3 -10 28 -10 56 l0 49 -39 0 c-43 0
-58 13 -67 59 -4 17 -11 34 -15 37 -5 3 -9 13 -9 22 0 10 -10 23 -21 31 -20
12 -21 11 -14 -6z"/>
<path d="M5590 10389 c-57 -4 -113 -15 -140 -26 -55 -23 -120 -62 -120 -73 0
-4 -11 -24 -25 -45 -30 -43 -40 -104 -31 -170 6 -37 10 -44 21 -35 10 9 15 6
21 -12 4 -13 8 -25 9 -28 0 -3 4 -11 9 -19 37 -58 65 -123 63 -147 -2 -25 2
-29 23 -29 14 0 37 -8 51 -17 23 -15 28 -15 41 -1 14 13 27 9 124 -40 120 -60
195 -79 187 -46 -4 13 2 21 19 28 13 5 30 16 37 24 10 13 8 18 -13 32 -14 10
-26 25 -26 35 0 10 -19 33 -42 52 -24 18 -52 41 -63 51 -11 10 -32 21 -47 24
-39 8 -36 36 7 59 19 10 41 45 65 103 19 45 37 72 69 102 17 15 31 33 31 38 0
6 14 11 31 11 22 0 32 5 36 20 3 11 10 20 17 20 17 0 58 68 45 76 -6 3 -68 8
-137 11 -70 2 -136 5 -147 6 -11 1 -63 -1 -115 -4z"/>
<path d="M4450 10357 c-52 -4 -99 -13 -105 -19 -7 -8 4 -9 39 -4 72 9 124 -2
144 -32 15 -23 15 -25 -3 -38 -12 -9 -31 -12 -50 -8 -39 7 -59 -13 -49 -49 7
-30 43 -40 61 -17 11 13 12 12 13 -7 0 -14 -6 -23 -15 -23 -8 0 -15 -8 -15
-17 0 -16 2 -16 11 -3 9 12 10 10 6 -9 -10 -41 64 -92 102 -72 16 9 23 6 41
-16 26 -34 20 -63 -24 -114 -41 -48 -65 -114 -48 -131 20 -20 13 -27 -17 -15
-36 13 -58 -1 -63 -41 -4 -32 -26 -40 -119 -41 -50 -1 -68 -5 -73 -16 -13 -36
21 -63 56 -44 12 6 46 11 76 10 35 -1 64 5 79 14 14 10 59 18 118 22 86 5 96
8 121 34 31 32 44 54 79 129 14 30 30 64 35 75 25 52 53 166 53 217 0 61 -12
88 -68 145 -66 68 -178 88 -385 70z"/>
<path d="M3828 10063 c-31 -5 -35 -15 -13 -33 8 -7 15 -21 15 -32 0 -29 -32
-19 -48 15 l-13 27 -28 -22 c-24 -20 -26 -24 -11 -30 26 -10 75 -61 72 -75 -2
-7 6 -13 18 -13 11 0 20 7 20 15 0 18 5 18 30 5 27 -14 64 -118 52 -145 -30
-65 -31 -74 -18 -144 8 -39 11 -73 8 -76 -3 -3 1 -5 10 -5 8 0 32 -29 53 -65
25 -44 43 -65 54 -63 25 6 18 68 -11 89 l-23 18 23 -6 c12 -3 29 1 38 8 9 7
18 9 22 3 16 -21 39 -12 57 22 l19 36 -24 19 c-14 11 -42 35 -62 54 -33 32
-43 37 -64 34 -10 -1 -23 24 -17 34 3 4 11 6 19 3 19 -7 18 8 -11 92 -13 40
-30 103 -36 140 -16 93 -22 102 -67 101 -20 -1 -49 -4 -64 -6z"/>
<path d="M3720 9820 c0 -26 5 -43 14 -46 11 -4 12 -12 5 -34 -9 -25 -6 -32 26
-64 40 -40 55 -45 55 -18 0 10 7 27 15 39 12 17 14 37 9 90 -7 76 -9 82 -26
65 -15 -15 -55 -16 -63 -2 -3 6 -13 10 -21 10 -10 0 -14 -12 -14 -40z"/>
<path d="M4780 9669 c-24 -45 -133 -75 -299 -83 -63 -3 -116 -8 -118 -9 -7 -7
17 -110 29 -124 15 -18 67 -13 163 15 39 11 91 23 116 27 33 5 51 14 65 33 10
15 29 37 41 49 36 37 53 66 53 90 0 30 -35 31 -50 2z"/>
<path d="M5340 9663 c0 -23 57 -110 78 -118 9 -4 29 -9 44 -10 16 -1 39 -10
52 -18 15 -10 36 -14 57 -11 19 3 85 -1 147 -10 245 -35 320 -19 366 78 39 82
35 89 -32 60 -52 -22 -185 -36 -328 -35 -96 0 -124 -2 -134 -14 -17 -20 -42
-19 -71 3 -29 23 -157 92 -170 92 -5 0 -9 -7 -9 -17z"/>
<path d="M5219 9433 c-14 -2 -45 -22 -69 -43 -37 -34 -53 -40 -104 -46 l-60
-7 34 -29 c35 -29 76 -36 108 -19 9 5 25 12 35 15 11 4 17 16 17 36 0 32 9 37
40 18 15 -9 24 -9 43 1 13 7 35 12 48 11 39 -4 49 -1 49 14 0 26 -90 57 -141
49z"/>
<path d="M8295 9400 c-4 -6 -8 -37 -8 -68 -1 -64 17 -87 53 -64 31 19 57 14
83 -14 20 -22 30 -25 56 -19 39 8 39 16 -2 35 -27 13 -32 20 -29 48 2 31 1 32
-40 32 -33 0 -49 6 -74 31 -22 21 -34 27 -39 19z"/>
<path d="M5224 9216 c-3 -8 -19 -19 -35 -25 -16 -5 -29 -17 -29 -25 0 -10 -6
-13 -16 -9 -12 4 -15 2 -12 -8 3 -8 10 -14 17 -14 7 0 20 -9 29 -20 9 -12 42
-29 72 -40 30 -10 70 -27 88 -38 35 -21 35 -21 32 40 -1 23 3 51 9 62 9 15 7
23 -5 35 -8 9 -22 16 -30 16 -8 0 -32 9 -54 20 -47 24 -59 25 -66 6z"/>
<path d="M8628 7444 c15 -7 16 -41 1 -84 -11 -31 -10 -34 25 -66 23 -21 36
-42 36 -58 0 -38 20 -42 33 -7 6 17 17 31 23 31 7 0 22 8 34 18 l23 18 -39 41
c-24 24 -40 51 -41 68 -1 15 -3 29 -5 30 -2 2 -25 6 -53 9 -27 3 -44 3 -37 0z"/>
<path d="M10260 9450 c0 -20 -4 -21 -59 -24 -38 -1 -42 -7 -48 -60 -5 -37 0
-56 26 -107 17 -33 31 -62 31 -64 0 -10 -79 37 -99 59 -14 14 -34 26 -47 26
-12 0 -29 10 -37 23 -15 21 -16 19 -18 -43 -2 -97 -10 -123 -38 -130 -33 -7
-39 -30 -9 -30 47 0 66 -13 98 -61 l32 -49 29 21 c20 14 29 16 29 7 0 -10 2
-10 9 1 5 7 6 22 4 32 -4 13 7 31 37 58 26 24 38 41 31 45 -22 14 -10 24 30
28 28 2 49 -2 63 -12 11 -9 33 -21 47 -27 23 -10 29 -8 52 17 15 16 27 37 27
48 0 21 -32 38 -49 28 -5 -3 -14 1 -21 9 -7 8 -22 15 -35 15 -14 0 -26 9 -33
25 -6 14 -20 25 -30 25 -24 0 -72 37 -72 56 0 20 66 19 78 -2 13 -23 46 -13
50 14 2 13 -7 39 -20 58 -26 38 -58 46 -58 14z"/>
<path d="M10606 9421 c-3 -4 -16 -6 -30 -4 -20 4 -25 0 -31 -27 l-7 -32 -21
20 c-12 11 -28 17 -35 15 -7 -3 -29 3 -49 12 -32 16 -37 16 -51 1 -14 -14 -15
-18 -2 -31 8 -8 33 -21 55 -28 31 -11 41 -20 46 -44 3 -16 13 -44 22 -62 15
-30 15 -35 1 -57 -15 -22 -15 -26 0 -49 9 -13 16 -37 16 -52 0 -15 9 -43 20
-60 20 -34 50 -44 50 -18 0 8 14 30 30 48 34 40 38 76 11 101 -10 9 -21 27
-24 39 -3 12 -10 40 -16 61 -7 29 -6 44 4 60 7 12 15 42 18 69 5 47 3 55 -7
38z"/>
</g>
</svg>
